<svg viewBox="0 0 16 16" fill="none" xmlns="http://www.w3.org/2000/svg">
<path d="M13.1429 6.25039C12.6714 6.25039 12.2857 6.64412 12.2857 7.12535V10.6252C12.2857 11.1064 12.6714 11.5002 13.1429 11.5002C13.6143 11.5002 14 11.1064 14 10.6252V7.12535C14 6.64412 13.6143 6.25039 13.1429 6.25039ZM2.85714 6.25039C2.38571 6.25039 2 6.64412 2 7.12535V10.6252C2 11.1064 2.38571 11.5002 2.85714 11.5002C3.32857 11.5002 3.71429 11.1064 3.71429 10.6252V7.12535C3.71429 6.64412 3.32857 6.25039 2.85714 6.25039ZM4.14286 11.0627C4.14286 11.4108 4.27832 11.7446 4.51943 11.9907C4.76055 12.2368 5.08758 12.3751 5.42857 12.3751V14.125C5.42857 14.6063 5.81429 15 6.28571 15C6.75714 15 7.14286 14.6063 7.14286 14.125V12.3751H8.85714V14.125C8.85714 14.6063 9.24286 15 9.71429 15C10.1857 15 10.5714 14.6063 10.5714 14.125V12.3751C10.9124 12.3751 11.2394 12.2368 11.4806 11.9907C11.7217 11.7446 11.8571 11.4108 11.8571 11.0627V6.25039H4.14286V11.0627ZM11.8331 5.37543C11.7697 4.79631 11.581 4.23879 11.2809 3.74311C10.9807 3.24743 10.5765 2.82594 10.0974 2.50905L10.526 1.63322C10.5768 1.52937 10.5851 1.40918 10.5491 1.29908C10.5131 1.18897 10.4357 1.09798 10.334 1.04612C10.2323 0.994254 10.1145 0.985766 10.0067 1.02252C9.8988 1.05928 9.80967 1.13827 9.75886 1.24211L9.32857 2.12057L9.21714 2.07507C8.42695 1.8071 7.57305 1.8071 6.78286 2.07507L6.67143 2.12057L6.24114 1.24211C6.19033 1.13827 6.1012 1.05928 5.99334 1.02252C5.88548 0.985766 5.76773 0.994254 5.666 1.04612C5.56427 1.09798 5.48689 1.18897 5.45088 1.29908C5.41488 1.40918 5.42319 1.52937 5.474 1.63322L5.90257 2.50905C5.42345 2.8259 5.01922 3.24737 4.71905 3.74306C4.41889 4.23875 4.23029 4.79629 4.16686 5.37543V5.81291H11.8571V5.37543H11.8331ZM6.71429 4.50047C6.60062 4.50058 6.49157 4.4546 6.41111 4.37264C6.33066 4.29068 6.2854 4.17945 6.28529 4.06342C6.28517 3.94739 6.33022 3.83607 6.41051 3.75395C6.4908 3.67182 6.59976 3.62562 6.71343 3.6255H6.71514C6.82881 3.62562 6.93777 3.67182 7.01806 3.75395C7.09836 3.83607 7.1434 3.94739 7.14329 4.06342C7.14317 4.17945 7.09791 4.29068 7.01746 4.37264C6.937 4.4546 6.82795 4.50058 6.71429 4.50047ZM9.28571 4.50047C9.17205 4.50058 9.063 4.4546 8.98254 4.37264C8.90209 4.29068 8.85683 4.17945 8.85671 4.06342C8.8566 3.94739 8.90164 3.83607 8.98194 3.75395C9.06223 3.67182 9.17119 3.62562 9.28486 3.6255H9.28743C9.40109 3.62562 9.51006 3.67182 9.59035 3.75395C9.67064 3.83607 9.71569 3.94739 9.71557 4.06342C9.71546 4.17945 9.6702 4.29068 9.58974 4.37264C9.50929 4.4546 9.40024 4.50058 9.28657 4.50047H9.28571Z" fill="currentColor"/>
</svg>
