<svg viewBox="0 0 16 16" fill="none" xmlns="http://www.w3.org/2000/svg">
<path d="M10.9372 0.507507C10.9058 0.471882 9.77503 0.521569 8.79102 1.60625C7.80702 2.69 7.95841 3.93311 7.98056 3.96499C8.00272 3.99686 9.38364 4.04655 10.2652 2.78562C11.1467 1.52469 10.9686 0.544069 10.9372 0.507507ZM13.9963 11.5071C13.952 11.4171 11.8501 10.3503 12.0458 8.29903C12.2415 6.24685 13.592 5.68436 13.6132 5.62342C13.6344 5.56248 13.0621 4.8828 12.4556 4.53874C12.0104 4.29616 11.5176 4.15718 11.0129 4.13186C10.9132 4.12905 10.567 4.0428 9.85533 4.24061C9.38641 4.37092 8.32948 4.7928 8.03871 4.80967C7.74702 4.82655 6.87933 4.3203 5.94609 4.18624C5.34886 4.06905 4.71563 4.30905 4.2624 4.49374C3.81009 4.67749 2.94978 5.20061 2.34793 6.59091C1.74608 7.98028 2.06085 10.1815 2.28609 10.8659C2.51132 11.5493 2.86301 12.6696 3.46117 13.4871C3.99286 14.4096 4.69809 15.0499 4.99255 15.2674C5.28702 15.4849 6.11779 15.6293 6.69379 15.3302C7.15717 15.0415 7.99348 14.8756 8.32395 14.8877C8.65349 14.8999 9.30333 15.0321 9.96887 15.3931C10.496 15.5777 10.9944 15.5009 11.4938 15.2946C11.9932 15.0874 12.716 14.3018 13.5597 12.709C13.88 11.9684 14.0258 11.5681 13.9963 11.5071Z" fill="#2B303A"/>
</svg>
