<svg viewBox="0 0 16 16" fill="none" xmlns="http://www.w3.org/2000/svg">
<path d="M7.99812 5.66567C6.71277 5.66567 5.66383 6.71463 5.66383 8C5.66383 9.28537 6.71277 10.3343 7.99812 10.3343C9.28346 10.3343 10.3324 9.28537 10.3324 8C10.3324 6.71463 9.28346 5.66567 7.99812 5.66567ZM14.9992 8C14.9992 7.03335 15.008 6.07545 14.9537 5.11055C14.8994 3.98979 14.6437 2.99512 13.8242 2.17556C13.0029 1.35426 12.01 1.10034 10.8893 1.04605C9.92263 0.991765 8.96475 1.00052 7.99987 1.00052C7.03323 1.00052 6.07536 0.991765 5.11047 1.04605C3.98973 1.10034 2.99508 1.35601 2.17554 2.17556C1.35425 2.99687 1.10034 3.98979 1.04605 5.11055C0.991765 6.0772 1.00052 7.0351 1.00052 8C1.00052 8.9649 0.991765 9.92455 1.04605 10.8895C1.10034 12.0102 1.356 13.0049 2.17554 13.8244C2.99683 14.6457 3.98973 14.8997 5.11047 14.9539C6.07711 15.0082 7.03499 14.9995 7.99987 14.9995C8.9665 14.9995 9.92438 15.0082 10.8893 14.9539C12.01 14.8997 13.0047 14.644 13.8242 13.8244C14.6455 13.0031 14.8994 12.0102 14.9537 10.8895C15.0097 9.92455 14.9992 8.96665 14.9992 8ZM7.99812 11.5917C6.01056 11.5917 4.40651 9.98759 4.40651 8C4.40651 6.01241 6.01056 4.40832 7.99812 4.40832C9.98567 4.40832 11.5897 6.01241 11.5897 8C11.5897 9.98759 9.98567 11.5917 7.99812 11.5917ZM11.7368 5.10004C11.2728 5.10004 10.898 4.72529 10.898 4.26122C10.898 3.79716 11.2728 3.42241 11.7368 3.42241C12.2009 3.42241 12.5756 3.79716 12.5756 4.26122C12.5758 4.37142 12.5542 4.48056 12.5121 4.58239C12.47 4.68422 12.4082 4.77675 12.3303 4.85467C12.2523 4.93258 12.1598 4.99437 12.058 5.03647C11.9562 5.07858 11.847 5.10018 11.7368 5.10004Z" fill="#2B303A"/>
</svg>
