<svg viewBox="0 0 16 16" fill="none" xmlns="http://www.w3.org/2000/svg">
<path d="M3.44215 4.8894C4.23862 4.8894 4.8843 4.24259 4.8843 3.4447C4.8843 2.64681 4.23862 2 3.44215 2C2.64567 2 2 2.64681 2 3.4447C2 4.24259 2.64567 4.8894 3.44215 4.8894Z" fill="currentColor"/>
<path d="M6.24654 5.98416V13.9993H8.73075V10.0357C8.73075 8.98977 8.92717 7.97689 10.2217 7.97689C11.4984 7.97689 11.5142 9.17267 11.5142 10.1017V14H13.9997V9.60449C13.9997 7.44537 13.5357 5.78607 11.0166 5.78607C9.80709 5.78607 8.99638 6.45098 8.66484 7.08023H8.63122V5.98416H6.24654ZM2.19824 5.98416H4.68641V13.9993H2.19824V5.98416Z" fill="currentColor"/>
</svg>
