<svg width="16" height="16" viewBox="0 0 16 16" fill="none" xmlns="http://www.w3.org/2000/svg">
<path d="M2.6604 5.04C2.66898 4.96392 2.65749 4.8871 2.62686 4.81568C2.59623 4.74427 2.5473 4.68026 2.484 4.62875L1.1764 3.21188V3H5.235L8.3724 9.19062L11.1304 3H15V3.21188L13.8821 4.175C13.8347 4.20765 13.7982 4.25118 13.7764 4.30094C13.7545 4.35069 13.7483 4.40481 13.7582 4.4575V11.5413C13.7483 11.5939 13.7545 11.6481 13.7764 11.6978C13.7982 11.7476 13.8347 11.7911 13.8821 11.8237L14.9741 12.7875V13H9.4833V12.7881L10.6145 11.8006C10.7258 11.7006 10.7258 11.6712 10.7258 11.5187V5.7925L7.5814 12.9762H7.1572L3.4962 5.7925V10.6075C3.4661 10.8094 3.541 11.0138 3.6992 11.16L5.1699 12.765V12.9762H1V12.765L2.47 11.16C2.54778 11.0875 2.6055 10.9998 2.63856 10.9039C2.67162 10.808 2.6791 10.7065 2.6604 10.6075V5.04Z" fill="#2B303A"/>
</svg>
