<svg viewBox="0 0 16 16" fill="none" xmlns="http://www.w3.org/2000/svg">
<path d="M8.32813 1.17763C5.52244 1.17763 2.75 3.04794 2.75 6.075C2.75 8 3.83281 9.09375 4.48906 9.09375C4.75988 9.09375 4.91563 8.33906 4.91563 8.126C4.91563 7.87181 4.26769 7.33019 4.26769 6.27188C4.26769 4.07344 5.94113 2.51463 8.10675 2.51463C9.96875 2.51463 11.3469 3.57294 11.3469 5.51719C11.3469 6.96925 10.7646 9.69269 8.87763 9.69269C8.19688 9.69269 7.61413 9.2005 7.61413 8.49525C7.61413 7.46144 8.336 6.46088 8.336 5.39425C8.336 3.58431 5.76831 3.91244 5.76831 6.09994C5.76831 6.55931 5.82562 7.06769 6.03081 7.48638C5.65325 9.11081 4.88238 11.5306 4.88238 13.2041C4.88238 13.7208 4.95631 14.2296 5.00531 14.7463C5.09806 14.8504 5.05169 14.8394 5.19388 14.7874C6.572 12.9004 6.523 12.5316 7.14644 10.0624C7.48288 10.7024 8.35219 11.0468 9.04125 11.0468C11.9449 11.0468 13.2496 8.21656 13.2496 5.6655C13.2496 2.95038 10.9033 1.1785 8.32769 1.1785L8.32813 1.17763Z" fill="currentColor"/>
</svg>
