<svg viewBox="0 0 16 16" fill="none" xmlns="http://www.w3.org/2000/svg">
<path fill-rule="evenodd" clip-rule="evenodd" d="M15.5 8C15.5 12.1419 12.1419 15.5 8 15.5C3.85813 15.5 0.5 12.1419 0.5 8C0.5 3.85813 3.85813 0.5 8 0.5C12.1419 0.5 15.5 3.85813 15.5 8ZM12.805 7.41125C12.9262 7.58437 12.995 7.78875 13.0025 8C13.0058 8.20667 12.9505 8.41003 12.8429 8.58657C12.7354 8.7631 12.5801 8.90557 12.395 8.9975C12.4037 9.1075 12.4037 9.2175 12.395 9.3275C12.395 11.0075 10.4375 12.3725 8.0225 12.3725C5.6075 12.3725 3.65 11.0075 3.65 9.3275C3.64156 9.21766 3.64156 9.10734 3.65 8.9975C3.50698 8.93055 3.38016 8.83343 3.27824 8.71281C3.17633 8.59218 3.10174 8.45092 3.05961 8.29874C3.01748 8.14655 3.0088 7.98704 3.03417 7.83118C3.05954 7.67532 3.11836 7.5268 3.20658 7.39584C3.29481 7.26487 3.41035 7.15456 3.54526 7.07249C3.68017 6.99042 3.83125 6.93853 3.98811 6.9204C4.14498 6.90226 4.30391 6.91831 4.45399 6.96744C4.60407 7.01657 4.74172 7.09761 4.8575 7.205C5.7217 6.61889 6.73841 6.29824 7.7825 6.2825L8.3375 3.68C8.34373 3.64987 8.35588 3.62128 8.37325 3.59588C8.39061 3.57048 8.41284 3.54878 8.43865 3.53204C8.46447 3.5153 8.49335 3.50384 8.52362 3.49834C8.55389 3.49284 8.58495 3.49341 8.615 3.5L10.4525 3.8675C10.5422 3.71333 10.684 3.59619 10.8523 3.53711C11.0206 3.47803 11.2045 3.48088 11.3709 3.54514C11.5373 3.6094 11.6754 3.73088 11.7603 3.88775C11.8452 4.04463 11.8714 4.22664 11.8342 4.40111C11.797 4.57557 11.6989 4.73107 11.5574 4.8397C11.4159 4.94832 11.2403 5.00295 11.0622 4.99379C10.884 4.98462 10.715 4.91226 10.5854 4.78969C10.4558 4.66712 10.3741 4.50236 10.355 4.325L8.75 3.9875L8.2625 6.3275C9.2939 6.34963 10.2968 6.67004 11.15 7.25C11.2639 7.14049 11.4002 7.05695 11.5494 7.0051C11.6987 6.95326 11.8574 6.93435 12.0146 6.94967C12.1719 6.96499 12.3239 7.01418 12.4604 7.09386C12.5968 7.17354 12.7144 7.28182 12.805 7.41125ZM5.62875 8.33313C5.57401 8.41504 5.53593 8.50693 5.5167 8.60356C5.49747 8.70018 5.49746 8.79965 5.51667 8.89628C5.55546 9.09144 5.6702 9.26319 5.83562 9.37375C6.00105 9.48431 6.20363 9.52463 6.39878 9.48583C6.49541 9.46662 6.58731 9.42857 6.66924 9.37384C6.75116 9.31911 6.82151 9.24879 6.87625 9.16687C6.98681 9.00145 7.02713 8.79887 6.98833 8.60372C6.94954 8.40856 6.8348 8.23681 6.66938 8.12625C6.50395 8.01569 6.30137 7.97537 6.10622 8.01417C5.91106 8.05296 5.73931 8.1677 5.62875 8.33313ZM8.0075 11.39C8.67313 11.4175 9.32812 11.2438 9.86 10.8425C9.89978 10.8037 9.92253 10.7507 9.92323 10.6952C9.92393 10.6396 9.90254 10.586 9.86375 10.5462C9.84454 10.5266 9.82165 10.5108 9.79636 10.5C9.77108 10.4891 9.74391 10.4834 9.7164 10.483C9.66084 10.4823 9.60728 10.5037 9.5675 10.5425C9.11233 10.869 8.55935 11.0304 8 11C7.44134 11.025 6.89092 10.8582 6.44 10.5275C6.40114 10.4956 6.35181 10.4793 6.3016 10.4818C6.25139 10.4842 6.20389 10.5053 6.16834 10.5408C6.1328 10.5764 6.11174 10.6239 6.10927 10.6741C6.10681 10.7243 6.12311 10.7736 6.155 10.8125C6.68711 11.2135 7.34179 11.4176 8.0075 11.39ZM9.30813 9.40375C9.43188 9.48625 9.56938 9.56 9.7175 9.56C9.81922 9.56119 9.92012 9.54165 10.014 9.50258C10.108 9.46352 10.193 9.40573 10.2638 9.33275C10.3347 9.25978 10.39 9.17313 10.4263 9.0781C10.4626 8.98307 10.4792 8.88164 10.475 8.78C10.475 8.65045 10.4413 8.52312 10.3775 8.41042C10.3136 8.29772 10.2216 8.20349 10.1104 8.13691C9.99932 8.07033 9.87283 8.03367 9.74332 8.0305C9.61381 8.02734 9.48569 8.05778 9.37143 8.11885C9.25718 8.17992 9.1607 8.26955 9.09138 8.37899C9.02207 8.48844 8.98228 8.61398 8.97591 8.74337C8.96953 8.87276 8.99678 9.0016 9.055 9.11733C9.11322 9.23306 9.20043 9.33174 9.30813 9.40375Z" fill="currentColor"/>
</svg>
