<svg viewBox="0 0 16 16" fill="none" xmlns="http://www.w3.org/2000/svg">
<path d="M15.0158 9.08912C15.0744 8.72903 15.1035 8.36479 15.1029 8C15.1029 6.14704 14.3651 4.36997 13.0519 3.05972C11.7386 1.74948 9.95737 1.01339 8.1001 1.01339C7.73446 1.01283 7.36937 1.04189 7.00845 1.10029C6.19904 0.61656 5.25085 0.416484 4.31444 0.531834C3.37804 0.647184 2.5071 1.07135 1.83994 1.73697C1.17277 2.40259 0.747624 3.27151 0.632006 4.20574C0.516388 5.13997 0.716928 6.08597 1.20178 6.8935C1.13646 7.25883 1.1015 7.62892 1.09726 8C1.09726 9.85296 1.83506 11.63 3.14835 12.9403C4.46163 14.2505 6.24283 14.9866 8.1001 14.9866C8.46574 14.9872 8.83082 14.9581 9.19175 14.8997C10.0012 15.3834 10.9493 15.5835 11.8858 15.4682C12.8222 15.3528 13.6931 14.9287 14.3603 14.263C15.0274 13.5974 15.4526 12.7285 15.5682 11.7943C15.6838 10.86 15.4833 9.91403 14.9984 9.1065L15.0158 9.08912ZM11.4273 11.1747C11.0996 11.6268 10.6479 11.9748 10.1266 12.1769C9.48347 12.4287 8.79665 12.5508 8.1059 12.5361C7.30189 12.5697 6.50203 12.4045 5.77743 12.0552C5.35499 11.8287 4.99272 11.505 4.72062 11.111C4.47137 10.7743 4.32971 10.3705 4.31415 9.95231C4.31354 9.8438 4.3354 9.73633 4.37837 9.63664C4.42133 9.53695 4.48448 9.44719 4.56384 9.37299C4.73971 9.22366 4.96612 9.14698 5.19677 9.15864C5.38952 9.15501 5.57712 9.22083 5.72517 9.34402C5.88723 9.49526 6.01237 9.68156 6.09099 9.88859C6.19173 10.1305 6.32034 10.3599 6.47423 10.5722C6.62761 10.7681 6.82705 10.9234 7.0549 11.0241C7.36439 11.1565 7.69976 11.2179 8.03622 11.2036C8.51546 11.2268 8.99012 11.1013 9.39498 10.8445C9.55036 10.7537 9.67958 10.6243 9.77013 10.469C9.86067 10.3137 9.90946 10.1377 9.91178 9.9581C9.9168 9.83231 9.89507 9.70688 9.84804 9.59006C9.801 9.47324 9.72971 9.36767 9.63886 9.2803C9.4321 9.09026 9.18348 8.95135 8.91303 8.87477C8.61108 8.77629 8.21042 8.6778 7.70524 8.56773C7.12506 8.43297 6.55921 8.24285 6.01551 8C5.58769 7.82507 5.21045 7.54628 4.91805 7.18895C4.64072 6.82064 4.49736 6.36909 4.51158 5.90865C4.50689 5.44057 4.65802 4.98416 4.94127 4.61097C5.26481 4.20994 5.69568 3.90863 6.1839 3.74199C6.80123 3.53742 7.44993 3.44329 8.1001 3.46392C8.60882 3.45494 9.11594 3.52331 9.60402 3.66668C9.98707 3.78016 10.3469 3.96062 10.6666 4.19966C10.9183 4.38823 11.1279 4.62694 11.2821 4.90063C11.4077 5.12173 11.4756 5.37072 11.4796 5.62478C11.4788 5.73309 11.4564 5.84015 11.4135 5.93965C11.3706 6.03915 11.3082 6.12907 11.2299 6.20411C11.1509 6.28953 11.0547 6.3574 10.9477 6.40332C10.8406 6.44923 10.7251 6.47215 10.6086 6.47059C10.4218 6.48509 10.2366 6.42697 10.0918 6.30838C9.93941 6.16191 9.81194 5.99168 9.71435 5.80437C9.57054 5.50911 9.36219 5.24978 9.10465 5.04546C8.76668 4.83526 8.36886 4.74163 7.97235 4.77898C7.56535 4.76186 7.16206 4.86245 6.81102 5.06864C6.6835 5.13657 6.57582 5.23632 6.49847 5.35817C6.42113 5.48001 6.37676 5.61977 6.36971 5.76382C6.36512 5.92122 6.41655 6.07515 6.51488 6.19831C6.63069 6.33219 6.77304 6.44068 6.93296 6.51694C7.10326 6.60483 7.28231 6.67473 7.46717 6.72549C7.65298 6.77763 7.95493 6.85294 8.37882 6.95143C8.91303 7.06729 9.38918 7.19474 9.82468 7.33378C10.2142 7.45219 10.5855 7.62374 10.9279 7.84358C11.2267 8.03206 11.4724 8.29321 11.6422 8.60249C11.8147 8.95525 11.8946 9.34595 11.8744 9.73796C11.8797 10.2517 11.7233 10.7542 11.4273 11.1747Z" fill="#2B303A"/>
</svg>
