<svg viewBox="0 0 16 16" fill="none" xmlns="http://www.w3.org/2000/svg">
<path d="M8.30319 1.01181C9.0564 1 9.8053 1.007 10.5533 1C10.5987 1.89299 10.9155 2.8026 11.5604 3.43394C12.2039 4.08104 13.1143 4.37724 14 4.47744V6.8265C13.17 6.79893 12.336 6.62392 11.5828 6.26166C11.2548 6.11115 10.9492 5.91733 10.65 5.71913C10.6461 7.42372 10.6569 9.12612 10.6392 10.8237C10.5943 11.6393 10.3289 12.4509 9.86098 13.1229C9.1082 14.2416 7.80162 14.971 6.45964 14.9937C5.6365 15.0414 4.81422 14.8139 4.1128 14.3948C2.95039 13.7 2.13243 12.4281 2.0133 11.063C1.99829 10.7739 1.99598 10.4843 2.00639 10.195C2.10998 9.08499 2.65169 8.02312 3.49253 7.30077C4.4456 6.45942 5.78067 6.05864 7.0307 6.29578C7.04236 7.15989 7.00826 8.02312 7.00826 8.88723C6.4372 8.69997 5.76988 8.75248 5.2709 9.10381C4.90583 9.34758 4.62995 9.70624 4.48574 10.1245C4.36661 10.4203 4.40071 10.7489 4.40761 11.063C4.54445 12.0203 5.45262 12.8249 6.42209 12.7379C7.0648 12.7309 7.68076 12.3529 8.01571 11.7994C8.12405 11.6056 8.24535 11.4074 8.25182 11.1794C8.30837 10.1359 8.28592 9.09681 8.29283 8.05331C8.29757 5.70163 8.28592 3.3565 8.30362 1.01225L8.30319 1.01181Z" fill="#2B303A"/>
</svg>
