<svg viewBox="0 0 16 16" fill="none" xmlns="http://www.w3.org/2000/svg">
<path d="M13.9941 5.31158C13.9415 6.43762 13.1255 7.97808 11.5484 9.93518C9.91813 11.9784 8.53702 13 7.40675 13C6.70677 13 6.11535 12.3767 5.63193 11.134C5.30965 9.9924 4.98794 8.85081 4.66223 7.71199C4.30396 6.46928 3.91939 5.84599 3.50511 5.84599C3.41654 5.84599 3.10112 6.02931 2.56513 6.3904L2 5.68766C2.59142 5.18436 3.17712 4.68495 3.75197 4.1822C4.54052 3.52391 5.13594 3.17948 5.53022 3.14448C6.46334 3.05949 7.03876 3.67279 7.2559 4.9916C7.48904 6.41151 7.65018 7.29701 7.74217 7.64144C8.01188 8.82136 8.30788 9.40966 8.62959 9.40966C8.87929 9.40966 9.25757 9.02746 9.76042 8.26195C10.2633 7.49644 10.5324 6.91481 10.569 6.51595C10.641 5.85488 10.3718 5.52601 9.76042 5.52601C9.47471 5.52601 9.17872 5.58934 8.87301 5.716C9.46157 3.85333 10.5884 2.94839 12.2518 3.00227C13.4843 3.03394 14.0661 3.80556 13.9941 5.31102V5.31158Z" fill="#2B303A"/>
</svg>
