<svg viewBox="0 0 16 16" fill="none" xmlns="http://www.w3.org/2000/svg">
<path d="M14.3782 3.96866C12.1344 0.499885 7.55326 -0.531372 4.00055 1.62489C0.541336 3.78116 -0.580572 8.4687 1.66324 11.9375L1.85023 12.2187L1.10229 15.0312L3.90706 14.2812L4.18754 14.4687C5.40294 15.125 6.71183 15.5 8.02073 15.5C9.42311 15.5 10.8255 15.125 12.0409 14.375C15.5001 12.125 16.5285 7.53119 14.3782 3.96866ZM12.4149 11.1875C12.0409 11.75 11.5734 12.125 10.919 12.2187C10.545 12.2187 10.0776 12.4062 8.20771 11.6562C6.61834 10.9062 5.30945 9.68746 4.37452 8.2812C3.81357 7.62494 3.53309 6.78118 3.4396 5.93743C3.4396 5.18742 3.72008 4.53117 4.18754 4.06241C4.37452 3.87491 4.56151 3.78116 4.74849 3.78116H5.21595C5.40294 3.78116 5.58992 3.78116 5.68342 4.15616C5.8704 4.62492 6.33786 5.74993 6.33786 5.84368C6.43136 5.93743 6.43136 6.12493 6.33786 6.21868C6.43136 6.40618 6.33786 6.59368 6.24437 6.68743C6.15088 6.78118 6.05739 6.96868 5.96389 7.06244C5.77691 7.15619 5.68342 7.34369 5.77691 7.53119C6.15088 8.09369 6.61834 8.6562 7.0858 9.12495C7.64676 9.59371 8.20771 9.96871 8.86216 10.25C9.04914 10.3437 9.23613 10.3437 9.32962 10.1562C9.42311 9.96871 9.89057 9.49995 10.0776 9.31245C10.2645 9.12495 10.358 9.12495 10.545 9.2187L12.0409 9.96871C12.2279 10.0625 12.4149 10.1562 12.5084 10.25C12.6019 10.5312 12.6019 10.9062 12.4149 11.1875Z" fill="#2B303A"/>
</svg>
