<svg viewBox="0 0 16 16" fill="none" xmlns="http://www.w3.org/2000/svg">
<path d="M8.06505 0.500011C5.11301 0.494896 2.33449 2.23718 1.05933 4.99502L4.64484 5.00351V5.39381C3.54077 5.26157 3.63799 5.83223 3.79429 6.43791L6.14801 12.3093L7.87801 8.27296L7.08382 6.38135C6.79534 5.87469 6.78925 5.3126 5.60907 5.36554L5.62564 5.00587L10.8843 5.0186V5.42164C10.2685 5.45759 9.52714 5.26753 9.92011 6.52277L12.047 12.0835L13.2096 8.83719C13.5904 7.47634 13.2321 6.16856 12.7796 4.88614C12.528 4.02582 12.6453 3.30734 13.7732 3.02232C12.0517 1.27326 10.0203 0.503401 8.06511 0.500011H8.06505ZM15.2171 5.63374L11.8078 14.479C12.7493 13.6674 13.7147 13.3719 14.896 11.1262C15.682 9.25818 15.6011 7.52772 15.2171 5.63372V5.63374ZM0.698454 5.77703C0.365686 8.38829 0.396128 9.15311 1.21987 11.2855C2.29363 13.3278 3.1263 13.7581 4.30811 14.5592L0.698439 5.77703H0.698454ZM8.19813 9.0903L5.67156 15.1578C7.44505 15.6616 9.03191 15.5986 10.4846 15.0381L8.19813 9.09029V9.0903Z" fill="#2B303A"/>
</svg>
