<svg viewBox="0 0 16 16" fill="none" xmlns="http://www.w3.org/2000/svg">
<path d="M3 14C3 11.7909 4.79086 10 7 10H9C11.2091 10 13 11.7909 13 14V15H3V14Z" fill="#2B303A"/>
<path d="M5.11508 5.50051C4.81796 3.7178 6.1927 2.09497 8 2.09497C9.8073 2.09497 11.182 3.7178 10.8849 5.50051L10.6801 6.72964C10.4617 8.03976 9.32819 9 8 9C6.67181 9 5.53828 8.03976 5.31993 6.72964L5.11508 5.50051Z" fill="#2B303A"/>
<path d="M5 4.49999C5 1.90244 7.66667 1.83257 9 2.09992C8.16667 3.16933 6.5 7.03756 6.5 8.00002C6.5 8.96248 4.5 9.28575 3.5 8.00002C3.83333 8.00001 5 7 5 4.49999Z" fill="#2B303A"/>
<path d="M11 4.49999C11 2 8.33333 1.83257 7 2.09992C7.83333 3.16933 9.5 7.03756 9.5 8.00002C9.5 8.96248 11.5 9.28575 12.5 8.00002C12.1667 8.00001 11 7 11 4.49999Z" fill="#2B303A"/>
<path d="M8 1.5C8.57585 1.5 8.93063 1.72107 9.15982 1.97225C9.41938 2.25673 9.34903 2.69715 9.10547 2.99545C5.92423 6.89153 5 5.53819 5 4C5 2 6.5 1.5 8 1.5Z" fill="#2B303A"/>
</svg>
