<svg viewBox="0 0 16 16" fill="none" xmlns="http://www.w3.org/2000/svg">
<path d="M3 14C3 11.7909 4.79086 10 7 10H9C11.2091 10 13 11.7909 13 14V15H3V14Z" fill="#2B303A"/>
<path d="M5.11508 5.50051C4.81796 3.7178 6.1927 2.09497 8 2.09497C9.8073 2.09497 11.182 3.7178 10.8849 5.50051L10.6801 6.72964C10.4617 8.03977 9.32819 9 8 9C6.67181 9 5.53828 8.03977 5.31993 6.72964L5.11508 5.50051Z" fill="#2B303A"/>
<path d="M4.54749 5.25978C4.54749 4.78308 4.93392 4.39665 5.41061 4.39665H5.69832V6.12291H5.41061C4.93392 6.12291 4.54749 5.73647 4.54749 5.25978Z" fill="#2B303A"/>
<path d="M11.4525 5.25978C11.4525 4.78308 11.0661 4.39665 10.5894 4.39665H10.3017V6.12291H10.5894C11.0661 6.12291 11.4525 5.73647 11.4525 5.25978Z" fill="#2B303A"/>
<path d="M4.54749 2.09496C4.54749 3.82123 4.73929 3.82121 5.1229 4.39663L10.3017 4.97205C11.2223 4.51172 11.0689 3.62941 10.8771 3.24579H10.3017C10.3017 0.94413 7.23282 1.32774 5.69836 1.51954L5.69834 1.51955C6.15867 1.97988 6.27374 1.90315 6.27374 2.09495C5.69832 1.51954 5.12292 2.09497 4.54749 2.09496Z" fill="#2B303A"/>
</svg>
