<svg viewBox="0 0 16 16" fill="none" xmlns="http://www.w3.org/2000/svg">
<path fill-rule="evenodd" clip-rule="evenodd" d="M1.14645 1.64645C1.34171 1.45118 1.65829 1.45118 1.85355 1.64645L14.3536 14.1464C14.5488 14.3417 14.5488 14.6583 14.3536 14.8536C14.1583 15.0488 13.8417 15.0488 13.6464 14.8536L1.14645 2.35355C0.951184 2.15829 0.951184 1.84171 1.14645 1.64645Z" fill="white"/>
<path fill-rule="evenodd" clip-rule="evenodd" d="M5.5562 7.47042C5.51939 7.64111 5.5 7.81829 5.5 8C5.5 9.38071 6.61929 10.5 8 10.5C8.18171 10.5 8.35889 10.4806 8.52958 10.4438L7.50067 9.41488C7.07392 9.26428 6.73572 8.92608 6.58512 8.49933L5.5562 7.47042ZM9.41453 8.50032C9.46988 8.34384 9.5 8.17544 9.5 8C9.5 7.17157 8.82843 6.5 8 6.5C7.82456 6.5 7.65616 6.53012 7.49968 6.58547L6.74916 5.83494C7.11706 5.62193 7.54429 5.5 8 5.5C9.38071 5.5 10.5 6.61929 10.5 8C10.5 8.45571 10.3781 8.88294 10.1651 9.25084L9.41453 8.50032Z" fill="#2B303A"/>
<path d="M1.5 2L14 14.5" stroke="#2B303A" stroke-linecap="round"/>
<path fill-rule="evenodd" clip-rule="evenodd" d="M3.0658 4.98001C1.96539 5.90994 1.19287 6.9403 0.799418 7.52514C0.604459 7.81493 0.604458 8.18507 0.799417 8.47486C1.63906 9.72292 4.20505 13 7.99994 13C8.93342 13 9.79254 12.8017 10.5699 12.4841L9.79193 11.7061C9.23118 11.8919 8.63294 12 7.99994 12C6.40247 12 5.02634 11.3115 3.91562 10.4242C2.85514 9.57697 2.09139 8.59066 1.68577 8C2.07332 7.43565 2.7878 6.51013 3.77565 5.68986L3.0658 4.98001ZM11.6586 10.7444C11.8045 10.6413 11.9464 10.5343 12.0843 10.4242C13.1447 9.57697 13.9085 8.59066 14.3141 8C13.9085 7.40933 13.1447 6.42303 12.0843 5.57584C10.9735 4.68852 9.59741 4 7.99994 4C7.09005 4 6.25197 4.22337 5.49384 4.57962L4.7483 3.83409C5.69524 3.33613 6.78456 3 7.99994 3C11.7948 3 14.3608 6.27708 15.2005 7.52514C15.3954 7.81493 15.3954 8.18507 15.2005 8.47486C14.7434 9.15423 13.7748 10.4348 12.375 11.4608L11.6586 10.7444Z" fill="#2B303A"/>
</svg>
