<svg width="16" height="16" viewBox="0 0 16 16" fill="none" xmlns="http://www.w3.org/2000/svg">
<path d="M1.21433 8.19577C1.1329 8.07472 1.1329 7.92528 1.21433 7.80423C1.61857 7.20336 2.43716 6.11703 3.6036 5.18519C4.76937 4.25389 6.25254 3.5 8 3.5C9.74746 3.5 11.2306 4.25389 12.3964 5.18519C13.5628 6.11703 14.3814 7.20336 14.7857 7.80423C14.8671 7.92528 14.8671 8.07472 14.7857 8.19577C14.3814 8.79664 13.5628 9.88297 12.3964 10.8148C11.2306 11.7461 9.74746 12.5 8 12.5C6.25254 12.5 4.76937 11.7461 3.6036 10.8148C2.43716 9.88297 1.61857 8.79664 1.21433 8.19577Z" stroke="#2B303A"/>
<circle cx="8" cy="8" r="2" stroke="#2B303A"/>
</svg>
