<svg width="16" height="16" viewBox="0 0 16 16" fill="none" xmlns="http://www.w3.org/2000/svg">
<path d="M8.56881 13.7125C8.62298 13.677 9.89813 12.837 11.1886 11.6189C11.9664 10.8841 12.5929 10.1592 13.0485 9.4642C13.336 9.02501 13.5624 8.59008 13.718 8.17079C13.9055 7.66906 14 7.17586 14 6.70256C14.0014 6.20083 13.9028 5.71332 13.7097 5.25423C13.5235 4.8131 13.255 4.41336 12.9193 4.07737C12.5833 3.74039 12.1872 3.47259 11.7525 3.28854L8.56881 13.7125ZM8.56881 13.7125L8.2396 13.9286L8.56881 13.7125ZM13.249 5.44866C13.4161 5.84616 13.5012 6.26711 13.5 6.70118V6.70256C13.5 7.10901 13.4189 7.54296 13.2497 7.99574L13.2492 7.99686C13.1091 8.3746 12.9013 8.77612 12.6302 9.19032C12.2012 9.84466 11.6026 10.5399 10.8453 11.2553C9.586 12.4441 8.33875 13.2655 8.29458 13.2944L8.29448 13.2945L7.99999 13.4878L7.70551 13.2945L7.70556 13.2944L7.6976 13.2894L7.69747 13.2893C7.69571 13.2882 7.67526 13.2749 7.63494 13.2478C7.5946 13.2207 7.53752 13.1818 7.46607 13.1321C7.32315 13.0325 7.12327 12.8897 6.88522 12.7104C6.40837 12.3511 5.78218 11.8483 5.15484 11.2555L5.15479 11.2555C4.39745 10.54 3.79882 9.8447 3.36982 9.19032L13.249 5.44866ZM12.5656 4.43079C12.8552 4.72064 13.0875 5.06608 13.2488 5.44807L2.7526 5.44807C2.91334 5.06597 3.14548 4.7206 3.43533 4.43122L3.43601 4.43054C3.72842 4.13749 4.06769 3.90831 4.44391 3.74893L4.44445 3.7487C4.83344 3.58336 5.2447 3.50001 5.67125 3.50001C6.26224 3.50001 6.83866 3.6655 7.34005 3.97847L7.34006 3.97848C7.46006 4.05338 7.57377 4.13546 7.68136 4.22476L8.00069 4.48979L8.32001 4.22476C8.4276 4.13546 8.54132 4.05338 8.66131 3.97848L8.66133 3.97847C9.16271 3.6655 9.73914 3.50001 10.3301 3.50001L10.3313 3.50001C10.7516 3.49902 11.1681 3.58344 11.5569 3.7487L11.5576 3.74897C11.9323 3.90763 12.2745 4.13878 12.5652 4.43039L12.5656 4.43079ZM2.5 6.70256C2.5 6.26736 2.58535 5.84576 2.75258 5.44811L3.36977 9.19025C3.09919 8.77694 2.89228 8.37492 2.75024 7.99549C2.58108 7.5428 2.5 7.10894 2.5 6.70256Z" stroke="#2B303A"/>
</svg>
