<svg viewBox="0 0 16 16" fill="none" xmlns="http://www.w3.org/2000/svg">
<path d="M7.48889 9.48443H8.18222V8.95999C8.18222 8.68443 8.29777 8.46221 8.52 8.27554L9 7.85777C9.35555 7.55554 9.77333 7.17332 9.77333 6.42665C9.77333 5.51999 9.08 4.79999 7.97777 4.79999C6.78666 4.79999 6.2 5.69777 6.2 6.55999H6.85777C6.85777 5.92888 7.28444 5.43999 7.97777 5.43999C8.65333 5.43999 9.04444 5.85777 9.04444 6.45332C9.04444 6.88888 8.86666 7.11999 8.53777 7.41332L8.03111 7.86665C7.66666 8.19554 7.48889 8.50665 7.48889 8.95999V9.48443ZM7.85333 11.2533C8.12889 11.2533 8.35111 11.0311 8.35111 10.7555C8.35111 10.48 8.12889 10.2578 7.85333 10.2578C7.57777 10.2578 7.34666 10.48 7.34666 10.7555C7.34666 11.0311 7.57777 11.2533 7.85333 11.2533Z" fill="currentColor"/>
<path fill-rule="evenodd" clip-rule="evenodd" d="M6.53014 5.25693C6.85536 4.89136 7.34123 4.64996 7.97777 4.64996C8.56214 4.64996 9.0494 4.84135 9.39178 5.16416C9.73426 5.48707 9.92332 5.93382 9.92332 6.42663C9.92332 7.24408 9.45806 7.66521 9.09781 7.97146L8.61648 8.39039C8.42339 8.55259 8.33221 8.73462 8.33221 8.95996V9.63441H7.33888V8.95996C7.33888 8.71217 7.38783 8.49719 7.48984 8.2982C7.59097 8.10094 7.7404 7.92692 7.9306 7.75527L8.43775 7.30151C8.59933 7.15739 8.71124 7.03916 8.78438 6.9119C8.85521 6.78862 8.89443 6.64838 8.89443 6.4533C8.89443 6.18892 8.80829 5.97655 8.65935 5.83034C8.51039 5.6841 8.2842 5.58996 7.97777 5.58996C7.66798 5.58996 7.42834 5.69828 7.2659 5.86725C7.10258 6.03714 7.00777 6.27836 7.00777 6.55996V6.70996H6.04999V6.55996C6.04999 6.09636 6.20746 5.61964 6.53014 5.25693ZM6.35639 6.40996H6.71521C6.74436 6.11978 6.85868 5.85797 7.04963 5.65934C7.27386 5.4261 7.59422 5.28996 7.97777 5.28996C8.34688 5.28996 8.65403 5.40472 8.86951 5.61626C9.08502 5.82782 9.19443 6.12212 9.19443 6.4533C9.19443 6.69377 9.14476 6.88686 9.04449 7.06136C8.94651 7.23187 8.80491 7.37603 8.63761 7.52524L8.13159 7.97799C8.13151 7.97806 8.13167 7.97792 8.13159 7.97799C7.95748 8.13515 7.83564 8.28129 7.7568 8.43506C7.67882 8.58718 7.63888 8.75442 7.63888 8.95996V9.33441H8.03221V8.95996C8.03221 8.63464 8.17177 8.37252 8.42247 8.16154L8.90283 7.74344C9.25359 7.4453 9.62332 7.102 9.62332 6.42663C9.62332 6.01277 9.46571 5.64619 9.18597 5.38244C8.90613 5.11858 8.49561 4.94996 7.97777 4.94996C7.42319 4.94996 7.02017 5.15746 6.75428 5.45633C6.51952 5.72022 6.38615 6.06178 6.35639 6.40996ZM7.19665 10.7555C7.19665 10.3937 7.49839 10.1077 7.85332 10.1077C8.21172 10.1077 8.5011 10.3971 8.5011 10.7555C8.5011 11.1139 8.21172 11.4033 7.85332 11.4033C7.49839 11.4033 7.19665 11.1173 7.19665 10.7555ZM7.85332 10.4077C7.65714 10.4077 7.49665 10.5662 7.49665 10.7555C7.49665 10.9448 7.65714 11.1033 7.85332 11.1033C8.04603 11.1033 8.2011 10.9482 8.2011 10.7555C8.2011 10.5628 8.04603 10.4077 7.85332 10.4077Z" fill="currentColor"/>
<circle cx="8" cy="8" r="6.5" stroke="currentColor"/>
</svg>
