<svg viewBox="0 0 16 16" fill="none" xmlns="http://www.w3.org/2000/svg">
<path d="M7.64455 7.25677V7.25677C6.65575 8.24557 6.65575 9.84873 7.64455 10.8375L7.72314 10.9161C8.75535 11.9483 10.4289 11.9483 11.4611 10.9161L14.131 8.24616C15.1632 7.21396 15.1632 5.54043 14.131 4.50822V4.50822C13.0988 3.47602 11.4253 3.47602 10.3931 4.50822L9.95331 4.94801" stroke="#2B303A" stroke-linecap="round"/>
<path d="M9.28687 9.55748V9.55748C10.0553 8.789 10.0553 7.54305 9.28687 6.77457L8.80935 6.29705C7.77715 5.26485 6.10362 5.26485 5.07141 6.29706L2.40146 8.96701C1.36925 9.99922 1.36925 11.6727 2.40146 12.705V12.705C3.43366 13.7372 5.10719 13.7372 6.1394 12.705L6.77865 12.0657" stroke="#2B303A" stroke-linecap="round"/>
</svg>
