<svg viewBox="0 0 16 16" fill="none" xmlns="http://www.w3.org/2000/svg">
<path d="M1.5 6.352C1.5 6.12931 1.64728 5.93345 1.86123 5.87165L8.86123 3.84942C9.18096 3.75706 9.5 3.99698 9.5 4.32978V11.6702C9.5 12.003 9.18096 12.2429 8.86123 12.1506L1.86123 10.1284C1.64728 10.0665 1.5 9.87069 1.5 9.648V6.352Z" stroke="currentColor"/>
<path d="M11.5 8H14" stroke="currentColor" stroke-linecap="round"/>
<path d="M11.634 6L13.366 5" stroke="currentColor" stroke-linecap="round"/>
<path d="M11.634 10L13.366 11" stroke="currentColor" stroke-linecap="round"/>
<path d="M3 10.5V11.5C3 12.6046 3.89543 13.5 5 13.5V13.5C6.10457 13.5 7 12.6046 7 11.5V11.5" stroke="currentColor"/>
</svg>
