<svg viewBox="0 0 16 16" fill="none" xmlns="http://www.w3.org/2000/svg">
<circle cx="8" cy="5" r="2" stroke="#2B303A"/>
<path d="M12 11.125C12 12.8509 10.2091 13 8 13C5.79086 13 4 12.8509 4 11.125C4 9.39911 5.79086 8 8 8C10.2091 8 12 9.39911 12 11.125Z" stroke="#2B303A"/>
<path d="M4.6 6.50002C3.60589 6.50002 2.8 5.69414 2.8 4.70002C2.8 3.70591 3.60589 2.90002 4.6 2.90002" stroke="#2B303A" stroke-linecap="round"/>
<path d="M4.6 6.5C2.61177 6.5 1 7.7592 1 9.3125C1 10.1693 1.49042 10.5943 2.26391 10.8032" stroke="#2B303A" stroke-linecap="round"/>
<path d="M11.3 6.50002C12.2941 6.50002 13.1 5.69414 13.1 4.70002C13.1 3.70591 12.2941 2.90002 11.3 2.90002" stroke="#2B303A" stroke-linecap="round"/>
<path d="M11.3 6.5C13.2882 6.5 14.9 7.7592 14.9 9.3125C14.9 10.1693 14.4096 10.5943 13.6361 10.8032" stroke="#2B303A" stroke-linecap="round"/>
</svg>
