<svg viewBox="0 0 16 16" fill="none" xmlns="http://www.w3.org/2000/svg">
<mask id="path-1-inside-1_16_16" fill="white">
<path fill-rule="evenodd" clip-rule="evenodd" d="M7.04676 1C6.58053 1 6.17617 1.32218 6.07202 1.77662L5.84054 2.78671L4.96269 2.23619C4.5677 1.98849 4.05396 2.0466 3.72429 2.37628L2.3762 3.72437C2.04653 4.05404 1.98842 4.56778 2.23612 4.96276L2.78661 5.84057L1.77662 6.07202C1.32218 6.17617 1 6.58053 1 7.04676V8.95324C1 9.41947 1.32218 9.82383 1.77662 9.92798L2.78665 10.1594L2.23613 11.0373C1.98843 11.4323 2.04654 11.946 2.37621 12.2757L3.7243 13.6238C4.05397 13.9535 4.56771 14.0116 4.9627 13.7639L5.84056 13.2133L6.07202 14.2234C6.17617 14.6778 6.58053 15 7.04676 15H8.95324C9.41947 15 9.82383 14.6778 9.92798 14.2234L10.1594 13.2134L11.0373 13.7639C11.4323 14.0116 11.946 13.9535 12.2757 13.6239L13.6238 12.2758C13.9535 11.9461 14.0116 11.4324 13.7639 11.0374L13.2133 10.1594L14.2234 9.92798C14.6778 9.82383 15 9.41947 15 8.95324V7.04676C15 6.58053 14.6778 6.17617 14.2234 6.07202L13.2134 5.84056L13.7639 4.96269C14.0116 4.5677 13.9535 4.05396 13.6238 3.72429L12.2757 2.3762C11.946 2.04653 11.4323 1.98842 11.0373 2.23612L10.1594 2.78665L9.92798 1.77662C9.82383 1.32218 9.41947 1 8.95324 1H7.04676Z"/>
</mask>
<path d="M6.07202 1.77662L7.04676 2V2L6.07202 1.77662ZM5.84054 2.78671L5.30926 3.6339L6.50104 4.38129L6.81528 3.01009L5.84054 2.78671ZM4.96269 2.23619L5.49398 1.389L5.49398 1.389L4.96269 2.23619ZM3.72429 2.37628L3.01718 1.66917L3.01718 1.66917L3.72429 2.37628ZM2.3762 3.72437L1.66909 3.01726L1.66909 3.01726L2.3762 3.72437ZM2.23612 4.96276L1.38893 5.49405L2.23612 4.96276ZM2.78661 5.84057L3.00998 6.8153L4.38119 6.50107L3.6338 5.30928L2.78661 5.84057ZM1.77662 6.07202L2 7.04676H2L1.77662 6.07202ZM1.77662 9.92798L2 8.95324H2L1.77662 9.92798ZM2.78665 10.1594L3.63384 10.6907L4.38123 9.49894L3.01003 9.18471L2.78665 10.1594ZM2.23613 11.0373L3.08332 11.5686H3.08332L2.23613 11.0373ZM2.37621 12.2757L3.08332 11.5686L2.37621 12.2757ZM3.7243 13.6238L3.01719 14.3309L3.7243 13.6238ZM4.9627 13.7639L5.49399 14.6111V14.6111L4.9627 13.7639ZM5.84056 13.2133L6.81529 12.99L6.50106 11.6188L5.30927 12.3662L5.84056 13.2133ZM6.07202 14.2234L5.09729 14.4468L6.07202 14.2234ZM9.92798 14.2234L8.95324 14V14L9.92798 14.2234ZM10.1594 13.2134L10.6907 12.3662L9.49893 11.6188L9.18469 12.99L10.1594 13.2134ZM11.0373 13.7639L11.5686 12.9168L11.5686 12.9168L11.0373 13.7639ZM12.2757 13.6239L12.9828 14.331L12.2757 13.6239ZM13.6238 12.2758L12.9167 11.5687L13.6238 12.2758ZM13.7639 11.0374L12.9167 11.5687L12.9167 11.5687L13.7639 11.0374ZM13.2133 10.1594L12.9899 9.18472L11.6187 9.49895L12.3661 10.6907L13.2133 10.1594ZM14.2234 9.92798L14.4468 10.9027H14.4468L14.2234 9.92798ZM14.2234 6.07202L14 7.04676L14.2234 6.07202ZM13.2134 5.84056L12.3662 5.30927L11.6188 6.50106L12.99 6.81529L13.2134 5.84056ZM13.7639 4.96269L12.9167 4.4314L12.9167 4.4314L13.7639 4.96269ZM13.6238 3.72429L14.3309 3.01718V3.01718L13.6238 3.72429ZM12.2757 2.3762L11.5686 3.08331V3.08331L12.2757 2.3762ZM11.0373 2.23612L11.5686 3.08331V3.08331L11.0373 2.23612ZM10.1594 2.78665L9.18471 3.01002L9.49894 4.38123L10.6907 3.63384L10.1594 2.78665ZM9.92798 1.77662L8.95324 2V2L9.92798 1.77662ZM7.04676 2L7.04676 2V0C6.11431 0 5.30558 0.644356 5.09729 1.55325L7.04676 2ZM6.81528 3.01009L7.04676 2L5.09729 1.55325L4.86581 2.56334L6.81528 3.01009ZM4.4314 3.08338L5.30926 3.6339L6.37183 1.93952L5.49398 1.389L4.4314 3.08338ZM4.4314 3.08338L5.49398 1.389C4.70401 0.8936 3.67653 1.00983 3.01718 1.66917L4.4314 3.08338ZM3.08331 4.43147L4.4314 3.08338L3.01718 1.66917L1.66909 3.01726L3.08331 4.43147ZM3.08331 4.43147L3.08331 4.43147L1.66909 3.01726C1.00975 3.6766 0.893524 4.70409 1.38893 5.49405L3.08331 4.43147ZM3.6338 5.30928L3.08331 4.43147L1.38893 5.49405L1.93942 6.37186L3.6338 5.30928ZM2 7.04676L3.00998 6.8153L2.56323 4.86584L1.55325 5.09729L2 7.04676ZM2 7.04676H2L1.55325 5.09729C0.644358 5.30558 0 6.11431 0 7.04676H2ZM2 8.95324V7.04676H0V8.95324H2ZM2 8.95324L2 8.95324H0C0 9.88569 0.644356 10.6944 1.55325 10.9027L2 8.95324ZM3.01003 9.18471L2 8.95324L1.55325 10.9027L2.56327 11.1342L3.01003 9.18471ZM3.08332 11.5686L3.63384 10.6907L1.93946 9.62815L1.38894 10.506L3.08332 11.5686ZM3.08332 11.5686L1.38894 10.506C0.893536 11.296 1.00976 12.3235 1.6691 12.9828L3.08332 11.5686ZM4.43141 12.9167L3.08332 11.5686L1.6691 12.9828L3.01719 14.3309L4.43141 12.9167ZM4.43141 12.9167H4.43141L3.01719 14.3309C3.67654 14.9902 4.70402 15.1065 5.49399 14.6111L4.43141 12.9167ZM5.30927 12.3662L4.43141 12.9167L5.49399 14.6111L6.37185 14.0605L5.30927 12.3662ZM7.04676 14L6.81529 12.99L4.86583 13.4367L5.09729 14.4468L7.04676 14ZM7.04676 14L5.09729 14.4468C5.30558 15.3556 6.11431 16 7.04676 16V14ZM8.95324 14H7.04676V16H8.95324V14ZM8.95324 14L8.95324 14V16C9.88569 16 10.6944 15.3556 10.9027 14.4468L8.95324 14ZM9.18469 12.99L8.95324 14L10.9027 14.4468L11.1342 13.4368L9.18469 12.99ZM11.5686 12.9168L10.6907 12.3662L9.62814 14.0606L10.506 14.6111L11.5686 12.9168ZM11.5686 12.9168H11.5686L10.506 14.6111C11.296 15.1065 12.3235 14.9903 12.9828 14.331L11.5686 12.9168ZM12.9167 11.5687L11.5686 12.9168L12.9828 14.331L14.3309 12.9829L12.9167 11.5687ZM12.9167 11.5687L12.9167 11.5687L14.3309 12.9829C14.9902 12.3235 15.1065 11.2961 14.6111 10.5061L12.9167 11.5687ZM12.3661 10.6907L12.9167 11.5687L14.6111 10.5061L14.0605 9.62816L12.3661 10.6907ZM14 8.95324L12.9899 9.18472L13.4367 11.1342L14.4468 10.9027L14 8.95324ZM14 8.95324L14 8.95324L14.4468 10.9027C15.3556 10.6944 16 9.88569 16 8.95324H14ZM14 7.04676V8.95324H16V7.04676H14ZM14 7.04676H16C16 6.1143 15.3556 5.30558 14.4468 5.09729L14 7.04676ZM12.99 6.81529L14 7.04676L14.4468 5.09729L13.4367 4.86583L12.99 6.81529ZM12.9167 4.4314L12.3662 5.30927L14.0605 6.37185L14.6111 5.49398L12.9167 4.4314ZM12.9167 4.4314V4.4314L14.6111 5.49398C15.1065 4.70401 14.9902 3.67653 14.3309 3.01718L12.9167 4.4314ZM11.5686 3.08331L12.9167 4.4314L14.3309 3.01718L12.9828 1.66909L11.5686 3.08331ZM11.5686 3.08331L11.5686 3.08331L12.9828 1.66909C12.3235 1.00975 11.296 0.893524 10.506 1.38893L11.5686 3.08331ZM10.6907 3.63384L11.5686 3.08331L10.506 1.38893L9.62815 1.93945L10.6907 3.63384ZM8.95324 2L9.18471 3.01002L11.1342 2.56327L10.9027 1.55325L8.95324 2ZM8.95324 2L8.95324 2L10.9027 1.55325C10.6944 0.644358 9.88569 0 8.95324 0V2ZM7.04676 2H8.95324V0H7.04676V2Z" fill="#2B303A" mask="url(#path-1-inside-1_16_16)"/>
<circle cx="8" cy="8" r="2" stroke="#2B303A"/>
</svg>
