<svg width="16" height="16" viewBox="0 0 16 16" fill="none" xmlns="http://www.w3.org/2000/svg">
<path d="M4.53101 7.93484L2.07632 10.3631C1.88487 10.5525 1.77873 10.8102 1.78192 11.078L1.8076 13.2345C1.81403 13.7746 2.25508 14.2109 2.80109 14.2173L4.98101 14.2427C5.25175 14.2458 5.51233 14.1408 5.70378 13.9514L8.07137 11.6094M7.95177 4.55094L10.6616 1.87032C11.0542 1.48192 11.6908 1.48192 12.0835 1.87032L14.2891 4.05215C14.6817 4.44055 14.6817 5.07028 14.2891 5.45868L11.5357 8.18238" stroke="#2B303A"/>
<rect x="0.710928" width="4.52398" height="13.3623" rx="0.5" transform="matrix(0.710928 -0.703265 0.710928 0.703265 0.673802 5.24289)" stroke="#2B303A"/>
<path d="M9.50071 5.90836L7.53714 7.85077" stroke="#2B303A"/>
<path d="M7.18014 3.61283L5.21657 5.55524" stroke="#2B303A"/>
<path d="M11.8213 8.20395L9.85773 10.1464" stroke="#2B303A"/>
</svg>
