<svg viewBox="0 0 16 16" fill="none" xmlns="http://www.w3.org/2000/svg">
<circle cx="8" cy="10.25" r="0.75" transform="rotate(180 8 10.25)" fill="currentColor"/>
<path d="M7.5 8C7.5 8.27614 7.72386 8.5 8 8.5C8.27614 8.5 8.5 8.27614 8.5 8L7.5 8ZM8.5 5C8.5 4.72386 8.27614 4.5 8 4.5C7.72386 4.5 7.5 4.72386 7.5 5L8.5 5ZM8.5 8L8.5 5L7.5 5L7.5 8L8.5 8Z" fill="currentColor"/>
<path d="M1.7572 12.0397L7.11225 1.7121C7.48536 0.992521 8.51464 0.992521 8.88775 1.7121L14.2428 12.0397C14.588 12.7053 14.1049 13.5 13.355 13.5H2.64496C1.89514 13.5 1.41205 12.7053 1.7572 12.0397Z" stroke="currentColor" stroke-linecap="round"/>
</svg>
