<svg viewBox="0 0 16 16" fill="none" xmlns="http://www.w3.org/2000/svg">
<path d="M10 2H13C13.5523 2 14 2.44772 14 3V6" stroke="#2B303A" stroke-linecap="round"/>
<path d="M6 14L3 14C2.44772 14 2 13.5523 2 13L2 10" stroke="#2B303A" stroke-linecap="round"/>
<path d="M13.5 2.5L9.5 6.5" stroke="#2B303A" stroke-linecap="round"/>
<path d="M2.5 13.5L6.5 9.5" stroke="#2B303A" stroke-linecap="round"/>
<path d="M2 6L2 3C2 2.44772 2.44772 2 3 2L6 2" stroke="#2B303A" stroke-linecap="round"/>
<path d="M14 10L14 13C14 13.5523 13.5523 14 13 14L10 14" stroke="#2B303A" stroke-linecap="round"/>
<path d="M2.5 2.5L6.5 6.5" stroke="#2B303A" stroke-linecap="round"/>
<path d="M13.5 13.5L9.5 9.5" stroke="#2B303A" stroke-linecap="round"/>
</svg>
