<svg viewBox="0 0 16 16" fill="none" xmlns="http://www.w3.org/2000/svg">
<path fill-rule="evenodd" clip-rule="evenodd" d="M14.6199 4.40412L8.64258 1.64129C8.44114 1.54821 8.2219 1.5 8 1.5C7.7781 1.5 7.55886 1.54821 7.35742 1.64129L1.3809 4.40412C1.14867 4.51077 1 4.74322 1 4.97567C1 5.25461 1.1487 5.48706 1.3809 5.59645L7.35742 8.35848C7.76484 8.54717 8.23516 8.54717 8.64258 8.35848L14.6199 5.59645C14.8523 5.48706 15 5.25461 15 4.97567C15 4.74322 14.8523 4.51077 14.6199 4.40412ZM13.5262 5.00024L8.22309 2.54906C8.22306 2.54904 8.22312 2.54907 8.22309 2.54906C8.15317 2.51676 8.07701 2.5 8 2.5C7.92301 2.5 7.84693 2.51672 7.77703 2.549C7.77699 2.54902 7.77707 2.54898 7.77703 2.549L2.47453 5.00024L7.77694 7.45073C7.91779 7.51597 8.08147 7.51631 8.22232 7.45107L13.5262 5.00024Z" fill="currentColor"/>
<path d="M1 7.97567C1 7.74322 1.14867 7.51077 1.3809 7.40412L3.91212 6.23399L5.12578 6.77462L2.47453 8.00024L7.77694 10.4507C7.91779 10.516 8.08147 10.5163 8.22232 10.4511L13.5262 8.00024L11 6.83259L12 6.19315L14.6199 7.40412C14.8523 7.51077 15 7.74322 15 7.97567C15 8.25461 14.8523 8.48706 14.6199 8.59645L8.64258 11.3585C8.23516 11.5472 7.76484 11.5472 7.35742 11.3585L1.3809 8.59645C1.1487 8.48706 1 8.25461 1 7.97567Z" fill="currentColor"/>
<path d="M1 11.0825C1 10.8501 1.14867 10.6176 1.3809 10.511L3.91212 9.34084L5.12578 9.88147L2.47453 11.1071L7.77694 13.5576C7.91779 13.6228 8.08147 13.6232 8.22232 13.5579L13.5262 11.1071L11 9.93944L12 9.3L14.6199 10.511C14.8523 10.6176 15 10.8501 15 11.0825C15 11.3615 14.8523 11.5939 14.6199 11.7033L8.64258 14.4653C8.23516 14.654 7.76484 14.654 7.35742 14.4653L1.3809 11.7033C1.1487 11.5939 1 11.3615 1 11.0825Z" fill="currentColor"/>
</svg>
