<svg viewBox="0 0 16 16" fill="none" xmlns="http://www.w3.org/2000/svg">
<rect x="1.5" y="2.5" width="13" height="12" rx="0.5" stroke="#2B303A"/>
<path d="M5 1V4" stroke="#2B303A" stroke-linecap="round"/>
<path d="M11 1V4" stroke="#2B303A" stroke-linecap="round"/>
<path d="M2 6H14" stroke="#2B303A" stroke-linecap="round"/>
<path d="M3.07788 11.9364H3.78957L4.03892 11.2195H5.55061L5.80515 11.9364H6.53762L5.23892 8.29999H4.37139L3.07788 11.9364ZM4.24152 10.6013L4.77658 9.06882H4.81814L5.35321 10.6013H4.24152Z" fill="#2B303A"/>
<path d="M7.86489 12.0039C8.24931 12.0039 8.51944 11.8065 8.62853 11.6039H8.67009V11.9364H9.31425V9.20388H8.63892V10.7727C8.63892 11.1156 8.40515 11.3805 8.07788 11.3805C7.76619 11.3805 7.54801 11.1519 7.54801 10.8195V9.20388H6.87269V10.9909C6.87269 11.5727 7.25191 12.0039 7.86489 12.0039Z" fill="#2B303A"/>
<path d="M11.2237 13.1987C12.1483 13.1987 12.6159 12.6584 12.6159 11.9156V9.20388H11.9457V9.55713H11.9042C11.8211 9.42207 11.5509 9.13635 11.0678 9.13635C10.3405 9.13635 9.80548 9.69739 9.80548 10.5597C9.80548 11.4273 10.3509 11.9779 11.0886 11.9779C11.5769 11.9779 11.8315 11.687 11.9094 11.5623H11.9509V11.9156C11.9509 12.3831 11.712 12.6428 11.2237 12.6428C10.8548 12.6428 10.6366 12.487 10.5847 12.2428H9.96132C10.0081 12.7519 10.4341 13.1987 11.2237 13.1987ZM11.2237 11.3701C10.7873 11.3701 10.4912 11.0584 10.4912 10.5597C10.4912 10.0766 10.7873 9.74934 11.2185 9.74934C11.6444 9.74934 11.9561 10.0506 11.9561 10.5597C11.9561 11.0221 11.6756 11.3701 11.2237 11.3701Z" fill="#2B303A"/>
</svg>
