<svg viewBox="0 0 16 16" fill="none" xmlns="http://www.w3.org/2000/svg">
<path d="M1.175 10.737C1.2135 10.6246 1.27997 10.5239 1.36814 10.4443C1.45631 10.3647 1.56329 10.3088 1.679 10.282L5.879 9.323C5.99301 9.29715 6.11167 9.30026 6.22416 9.33206C6.33665 9.36385 6.43939 9.4233 6.523 9.505C6.621 9.596 6.628 9.603 7.083 10.471C8.59276 9.77531 9.80251 8.5606 10.492 7.048C9.603 6.6 9.596 6.6 9.505 6.495C9.4233 6.41139 9.36385 6.30865 9.33206 6.19616C9.30026 6.08367 9.29715 5.965 9.323 5.851L10.282 1.7C10.3088 1.58429 10.3647 1.47731 10.4443 1.38914C10.5239 1.30097 10.6246 1.2345 10.737 1.196C10.9005 1.13761 11.0693 1.09541 11.241 1.07C11.4179 1.02898 11.5985 1.00553 11.78 1C12.634 1 13.453 1.33925 14.0569 1.94312C14.6608 2.54698 15 3.366 15 4.22C14.9963 7.0779 13.8594 9.81768 11.8385 11.8385C9.81768 13.8594 7.0779 14.9963 4.22 15C3.79715 15 3.37843 14.9167 2.98776 14.7549C2.59709 14.5931 2.24212 14.3559 1.94312 14.0569C1.64411 13.7579 1.40693 13.4029 1.24511 13.0122C1.08329 12.6216 1 12.2029 1 11.78C0.999786 11.6018 1.01383 11.4239 1.042 11.248C1.07142 11.0741 1.11592 10.9032 1.175 10.737Z" fill="currentColor"/>
</svg>
