<svg width="16" height="16" viewBox="0 0 16 16" fill="none" xmlns="http://www.w3.org/2000/svg">
<path fill-rule="evenodd" clip-rule="evenodd" d="M5.67037 7.04226L8.00106 4.71258L10.3327 7.04415L11.6881 5.68786L8.00106 2L4.31403 5.68691L5.67037 7.04226ZM2 8.00021L3.35584 6.64441L4.71168 8.00021L3.35584 9.356L2 8.00021ZM8.00108 11.2884L5.67038 8.95774L4.31215 10.3121L4.31405 10.314L8.00108 14L11.6881 10.3121L11.6891 10.3112L10.3327 8.95679L8.00108 11.2884ZM11.2884 8.00054L12.6442 6.64474L14 8.00054L12.6442 9.35633L11.2884 8.00054ZM8.00107 6.62333L9.37636 7.99953H9.37731L9.37636 8.00048L8.00107 9.37667L6.62578 8.00237L6.62388 7.99953L6.62578 7.99763L6.86653 7.75689L6.98406 7.64032L8.00107 6.62333Z" fill="#2B303A"/>
</svg>
