<svg width="16" height="16" viewBox="0 0 16 16" fill="none" xmlns="http://www.w3.org/2000/svg">
<path fill-rule="evenodd" clip-rule="evenodd" d="M8.31926 2.38548C8.4698 2.09955 8.12393 1.75334 7.8406 1.90258C7.61011 1.99535 7.55161 2.33236 7.73101 2.50287C7.90033 2.68054 8.23183 2.61856 8.31926 2.38548ZM5.16534 2.51161C5.18289 2.32212 4.96501 2.16284 4.79289 2.2344C4.5533 2.29888 4.52672 2.68001 4.75916 2.77095C4.93459 2.86871 5.18361 2.71731 5.16534 2.51161ZM11.0347 2.77673C10.7657 2.7439 10.7232 2.31674 10.9821 2.23073C11.183 2.13178 11.3672 2.31733 11.3966 2.50964C11.3545 2.67384 11.2184 2.8242 11.0347 2.77673ZM6.14042 3.97214C6.18468 3.63453 5.77408 3.36074 5.48632 3.54458C5.21683 3.68377 5.17978 4.09905 5.42431 4.28007C5.67723 4.51052 6.12547 4.31303 6.14042 3.97214ZM9.87923 3.73965C10.0076 3.40546 10.5278 3.39534 10.6739 3.72067C10.8184 3.97384 10.6407 4.28735 10.3834 4.37343C10.0425 4.43771 9.71875 4.0655 9.87923 3.73965ZM8 3.8336C7.72973 3.85317 7.47071 4.06721 7.4735 4.35445C7.4581 4.58918 7.62411 4.78089 7.82125 4.87866C7.8411 4.87986 7.8612 4.88147 7.88144 4.8831C7.99279 4.89203 8.10845 4.9013 8.20865 4.84458C8.46762 4.72889 8.59489 4.38183 8.45156 4.12978C8.37467 3.94706 8.17928 3.86991 8 3.8336ZM2.94137 4.77302C3.20423 4.60979 3.55887 4.90768 3.45936 5.19611C3.40456 5.4456 3.07254 5.54711 2.88274 5.38783C2.68013 5.23859 2.71224 4.87977 2.94137 4.77302ZM13.2379 5.08265C13.2645 4.79823 12.8965 4.59758 12.6735 4.77249C12.4446 4.91444 12.4695 5.29334 12.7133 5.40404C12.9347 5.53759 13.2529 5.342 13.2379 5.08265ZM8.74812 5.28888C9.11615 5.15533 9.55328 5.31514 9.76303 5.64658C10.0397 6.05174 9.89252 6.66879 9.46312 6.90128C9.0182 7.17625 8.36852 6.94316 8.2042 6.44129C8.01765 5.992 8.28941 5.42971 8.74812 5.28888ZM7.74266 5.7232C7.54564 5.30175 6.99671 5.13859 6.58884 5.33307C6.15412 5.52918 5.95411 6.10768 6.17934 6.5336C6.38019 6.97402 6.96571 7.15451 7.38073 6.91644C7.79524 6.70463 7.97451 6.13342 7.74266 5.7232ZM4.42673 6.07971C4.45774 5.81426 4.70565 5.64152 4.95577 5.62366C5.22526 5.65649 5.44054 5.86791 5.46986 6.1434C5.45218 6.41614 5.24353 6.6827 4.9574 6.68106C4.6426 6.70844 4.36661 6.39211 4.42673 6.07971ZM11.5704 6.14301C11.5847 5.76798 11.136 5.49136 10.8128 5.68137C10.4658 5.84663 10.4398 6.39322 10.7741 6.5873C11.0959 6.82039 11.5925 6.54036 11.5704 6.14301ZM5.71006 7.08183C6.08804 6.97678 6.52022 7.15674 6.7056 7.50768C6.90866 7.86091 6.82566 8.35163 6.51028 8.61071C6.10578 8.99073 5.35977 8.83814 5.14449 8.31952C4.8971 7.8441 5.1976 7.20697 5.71006 7.08183ZM10.8023 7.45489C10.6048 7.11676 10.1731 6.9737 9.80568 7.07986C9.28938 7.22267 9.01599 7.88435 9.28769 8.35255C9.51181 8.80519 10.1427 8.95718 10.55 8.6677C10.9388 8.4184 11.0635 7.84161 10.8023 7.45489ZM3.27892 7.52108C3.60542 7.39633 3.96734 7.76026 3.83506 8.08723C3.75427 8.38512 3.33866 8.49522 3.12396 8.2756C2.87273 8.06937 2.96575 7.6105 3.27892 7.52108ZM12.5947 7.4652C12.3172 7.4803 12.1193 7.72231 12.1287 7.99558C12.183 8.12302 12.2488 8.25604 12.3772 8.32196C12.6511 8.47454 13.0385 8.2538 13.018 7.92907C13.0357 7.68318 12.8183 7.50099 12.5947 7.4652ZM1.67356 7.68148C1.86999 7.59487 2.11296 7.76683 2.06811 7.98717C2.05758 8.23667 1.69293 8.33259 1.55897 8.12413C1.4406 7.97936 1.51145 7.75613 1.67356 7.68148ZM14.474 7.81174C14.4192 7.64851 14.1973 7.57701 14.059 7.67648C13.8288 7.80051 13.919 8.22977 14.1979 8.2041C14.3965 8.23424 14.567 7.98999 14.474 7.81174ZM6.77683 8.87413C7.29371 8.73835 7.84933 9.17372 7.85258 9.71131C7.88631 10.2546 7.33908 10.7363 6.80998 10.6108C6.40099 10.5443 6.08009 10.1464 6.09335 9.72891C6.09224 9.32965 6.39053 8.95856 6.77683 8.87413ZM9.91237 9.71807C9.92069 9.16807 9.34849 8.72489 8.82388 8.87301C8.51285 8.95107 8.24947 9.21002 8.18077 9.52846C8.04465 10.0063 8.40437 10.5473 8.89187 10.611C9.40992 10.7168 9.94006 10.2513 9.91237 9.71807ZM4.87708 9.20392C5.24011 9.14135 5.58045 9.55046 5.43323 9.89863C5.32585 10.2697 4.79128 10.3703 4.55494 10.0672C4.27772 9.77618 4.48468 9.2441 4.87708 9.20392ZM11.5765 9.72103C11.6014 9.36616 11.2041 9.08331 10.8804 9.22027C10.4891 9.34587 10.4239 9.94833 10.7824 10.1531C11.0989 10.3811 11.5895 10.1117 11.5765 9.72103ZM12.5581 10.9203C12.4314 10.6816 12.6616 10.3653 12.9239 10.4094C13.0473 10.4073 13.1356 10.5 13.2155 10.5837L13.2294 10.5983L13.2324 10.6225C13.2494 10.7586 13.2688 10.9147 13.1592 11.0175C13.0014 11.2193 12.6439 11.1617 12.5581 10.9203ZM3.4831 10.8465C3.53822 10.5569 3.1854 10.311 2.94021 10.4759C2.70667 10.5961 2.69835 10.9717 2.92409 11.1036C3.13443 11.2489 3.45378 11.1025 3.4831 10.8465ZM7.78404 11.0119C8.10501 10.8688 8.51393 11.1511 8.48351 11.5082C8.5073 11.9028 8.00153 12.1761 7.68771 11.9391C7.33911 11.7356 7.39722 11.137 7.78404 11.0119ZM6.15592 11.9553C6.18081 11.6462 5.81395 11.3953 5.54056 11.5406C5.34796 11.6133 5.26944 11.8279 5.26606 12.0206C5.33191 12.1974 5.46581 12.3833 5.67115 12.3878C5.91906 12.4253 6.16424 12.209 6.15592 11.9553ZM10.0851 11.545C10.3662 11.3695 10.7657 11.6216 10.7392 11.9521C10.7464 12.2975 10.2948 12.5188 10.0331 12.2919C9.77962 12.114 9.81056 11.6865 10.0851 11.545ZM11.1005 13.0535C10.8975 13.0971 10.7502 13.3274 10.8753 13.5185C11.0037 13.7404 11.3783 13.661 11.4021 13.4023C11.4364 13.2111 11.2638 13.087 11.1005 13.0535ZM4.6021 13.3525C4.65189 13.201 4.77253 13.0505 4.94907 13.0899C5.20641 13.1083 5.28278 13.5001 5.05756 13.6208C4.85502 13.7588 4.62004 13.5699 4.6021 13.3525ZM8.15429 13.3122C7.96501 13.1932 7.67784 13.3022 7.62857 13.5263C7.53854 13.7527 7.75473 14.0263 7.99439 13.998C8.12335 14.0013 8.22293 13.9085 8.30041 13.8158C8.31549 13.7532 8.33083 13.6906 8.34799 13.628L8.34693 13.624C8.31507 13.5047 8.27797 13.3659 8.15429 13.3122Z" fill="#2B303A"/>
</svg>
