<svg viewBox="0 0 16 16" fill="none" xmlns="http://www.w3.org/2000/svg">
<path fill-rule="evenodd" clip-rule="evenodd" d="M7.71506 2.5H4.16554V7.21429H2V8.78571H4.16554V13.5H7.71506C9.58861 13.5 9.99231 13.3038 10.7997 12.9114C10.8624 12.8809 10.9275 12.8493 10.9959 12.8164C11.9457 12.3607 12.6839 11.7191 13.2103 10.8914C13.7368 10.0638 14 9.10001 14 8C14 6.89999 13.7368 5.93619 13.2103 5.10857C12.6839 4.28095 11.9457 3.63929 10.9959 3.18357C10.0461 2.72785 8.95252 2.5 7.71506 2.5ZM6.80326 8.78571V11.41H7.5848C8.72456 11.41 9.63365 11.1036 10.3121 10.4907C10.9905 9.87785 11.3297 9.04762 11.3297 8C11.3297 6.95238 10.9905 6.12215 10.3121 5.50929C9.63365 4.89643 8.72456 4.59 7.5848 4.59H6.80326V7.21429H9.327V8.78571H6.80326Z" fill="#2B303A"/>
</svg>
