<svg width="16" height="16" viewBox="0 0 16 16" fill="none" xmlns="http://www.w3.org/2000/svg">
<path fill-rule="evenodd" clip-rule="evenodd" d="M2.4486 6.76296H12.0356C12.1558 6.76296 12.2698 6.81164 12.3526 6.89841L13.8693 8.4582C14.149 8.74603 13.9501 9.23704 13.5523 9.23704H3.96529C3.84511 9.23704 3.73115 9.18836 3.64827 9.10159L2.13159 7.5418C1.8498 7.25397 2.05078 6.76296 2.4486 6.76296ZM2.13159 4.69524L3.64827 3.13545C3.73323 3.04868 3.84718 3 3.96529 3H13.5502C13.9481 3 14.149 3.49101 13.8673 3.77884L12.3526 5.33862C12.2677 5.4254 12.1537 5.47407 12.0356 5.47407H2.4486C2.05078 5.47407 1.8498 4.98307 2.13159 4.69524ZM13.8673 11.3048L12.3506 12.8645C12.2656 12.9513 12.1517 13 12.0336 13H2.4486C2.05078 13 1.8498 12.509 2.13159 12.2212L3.64827 10.6614C3.73323 10.5746 3.84718 10.5259 3.96529 10.5259H13.5502C13.9481 10.5259 14.149 11.0169 13.8673 11.3048Z" fill="#2B303A"/>
</svg>
