<svg width="16" height="16" viewBox="0 0 16 16" fill="none" xmlns="http://www.w3.org/2000/svg">
<path fill-rule="evenodd" clip-rule="evenodd" d="M6.50369 13.7015C6.50369 13.8896 6.35642 13.9964 6.17453 13.9397C3.75725 13.1685 2.00464 10.9019 2.00464 8.22739C2.00464 5.55299 3.75725 3.28625 6.17453 2.51511C6.35642 2.45869 6.50369 2.56517 6.50369 2.75323V3.21748C6.50369 3.34267 6.40666 3.49003 6.28737 3.53083C4.37486 4.23311 3.00482 6.07039 3.00482 8.22421C3.00482 10.378 4.37486 12.2157 6.28737 12.9176C6.40666 12.9616 6.50369 13.1056 6.50369 13.2313V13.7015Z" fill="#2B303A"/>
<path fill-rule="evenodd" clip-rule="evenodd" d="M8.50062 11.9739C8.50062 12.112 8.38778 12.2249 8.24987 12.2249H7.75128C7.61336 12.2249 7.50053 12.112 7.50053 11.9739V11.184C6.4094 11.0367 5.87656 10.4252 5.73229 9.59446C5.70712 9.45319 5.81996 9.32472 5.96423 9.32472H6.53487C6.65397 9.32472 6.75436 9.40949 6.77944 9.52841C6.8861 10.0238 7.17137 10.4032 8.046 10.4032C8.69186 10.4032 9.14975 10.0426 9.14975 9.50361C9.14975 8.96414 8.88001 8.76045 7.93316 8.60355C6.53487 8.41548 5.87338 7.99212 5.87338 6.89481C5.87338 6.04835 6.51306 5.39004 7.50371 5.24886V4.47444C7.50371 4.33644 7.61663 4.22351 7.75446 4.22351H8.25305C8.39096 4.22351 8.5038 4.33644 8.5038 4.47444V5.27085C9.30956 5.4153 9.8206 5.87274 9.98686 6.63144C10.0181 6.77589 9.90527 6.91044 9.758 6.91044H9.23115C9.11832 6.91044 9.02429 6.83512 8.98985 6.72547C8.84876 6.24286 8.5038 6.036 7.90491 6.036C7.24342 6.036 6.90163 6.3557 6.90163 6.80396C6.90163 7.27739 7.09615 7.51551 8.11205 7.66314C9.48508 7.85121 10.1938 8.24305 10.1938 9.41276C10.1938 10.2999 9.53532 11.0179 8.5038 11.184V11.9739H8.50062Z" fill="#2B303A"/>
<path fill-rule="evenodd" clip-rule="evenodd" d="M9.83013 13.9397C9.64843 13.9965 9.50098 13.8896 9.50098 13.7016V13.2377C9.50098 13.0997 9.58565 12.9712 9.71729 12.924C11.6298 12.2217 12.9998 10.3844 12.9998 8.23057C12.9998 6.07676 11.6298 4.23947 9.71729 3.53719C9.59819 3.49322 9.50098 3.34913 9.50098 3.22348V2.7596C9.50098 2.57153 9.64843 2.46188 9.83013 2.52111C12.2474 3.29271 14 5.55936 14 8.23376C13.997 10.9018 12.2474 13.1653 9.83013 13.9397Z" fill="#2B303A"/>
</svg>
