<svg viewBox="0 0 22 16" fill="none" xmlns="http://www.w3.org/2000/svg">
<rect x="0.5" y="0.5" width="21" height="15" rx="1.5" stroke="currentColor"/>
<path fill-rule="evenodd" clip-rule="evenodd" d="M10.5334 12.2859V8.3084H13.9062V9.22467H11.6257V9.84673H13.8518V10.7479H11.6257V11.3588H13.9062V12.2859H10.5334Z" fill="currentColor"/>
<path fill-rule="evenodd" clip-rule="evenodd" d="M13.8894 12.2859L15.7553 10.295L13.8894 8.30869H15.3336L16.474 9.56917L17.6175 8.30869H18.9999V8.33987L17.1735 10.295L18.9999 12.2297V12.2859H17.6036L16.4431 11.0127L15.2944 12.2859H13.8894Z" fill="currentColor"/>
<path fill-rule="evenodd" clip-rule="evenodd" d="M10.7649 3.7771L9 7.75121H10.2105L10.5433 6.95533H12.3474L12.6802 7.75121H13.9206L12.1631 3.7771H10.7649ZM10.9165 6.06345L11.4457 4.79833L11.9745 6.06345H10.9165Z" fill="currentColor"/>
<path fill-rule="evenodd" clip-rule="evenodd" d="M13.9043 7.75053V3.77643L15.6056 3.78229L16.4812 6.22548L17.3625 3.77643H19V7.75053L17.9463 7.7598V5.02982L16.9516 7.75053H15.9897L14.9743 5.02056V7.75053H13.9043Z" fill="currentColor"/>
</svg>
