<svg viewBox="0 0 22 16" fill="none" xmlns="http://www.w3.org/2000/svg">
<rect x="0.5" y="0.5" width="21" height="15" rx="1.5" stroke="#2B303A"/>
<path d="M13.0611 7.7016C13.0628 7.31473 12.9177 6.9273 12.6258 6.63533C12.3332 6.34277 11.9448 6.19783 11.5572 6.20016C11.5553 6.20016 11.5535 6.20004 11.5516 6.20004C10.7097 6.20004 10.042 6.86763 10.042 7.70971C10.042 8.54348 10.718 9.21926 11.5516 9.21926C12.3937 9.21926 13.0613 8.55155 13.0613 7.70971C13.0613 7.70694 13.0611 7.70433 13.0611 7.7016Z" fill="#2B303A"/>
<path d="M9.76121 8.3483C9.53557 8.57418 9.32732 8.66242 9.10301 8.6672C8.55655 8.6623 8.15478 8.25761 8.15478 7.68063C8.15478 7.39019 8.26475 7.15215 8.43895 6.9488C8.60232 6.7937 8.81278 6.69349 9.05479 6.69349C9.31604 6.69349 9.51935 6.78058 9.75145 7.01284V6.34512C9.51939 6.22905 9.316 6.17096 9.05479 6.17096C8.68575 6.19734 8.33778 6.34645 8.07087 6.5806C7.99394 6.64981 7.92023 6.72622 7.85772 6.81366C7.66276 7.06635 7.54492 7.37578 7.54492 7.70978C7.54492 8.55157 8.21287 9.19026 9.05475 9.19026C9.05885 9.19026 9.0629 9.1899 9.06688 9.18986C9.07254 9.18994 9.07812 9.19026 9.08374 9.19026C9.31596 9.19026 9.51935 9.13232 9.7806 9.01617L9.76121 8.3483C9.75141 8.3581 9.77092 8.36721 9.76121 8.37648V8.3483Z" fill="#2B303A"/>
<path d="M14.9672 6.58673L14.3098 8.2032L13.5549 6.28694H12.9453L14.1356 9.2192H14.4549L15.7033 6.28694H15.0937L14.9672 6.58673Z" fill="#2B303A"/>
<path d="M15.9355 7.56439V9.13224H17.5034H17.5323V8.66755H17.0388H16.5162V8.1451V7.88389H17.5034V7.39019H16.5162V6.78057H17.5323V6.28694H15.9355V7.56439Z" fill="#2B303A"/>
<path d="M2.81305 6.28694H2V9.13224H2.81301C3.24842 9.13224 3.56772 9.01601 3.82901 8.81277C4.14831 8.55149 4.35163 8.14514 4.35163 7.70973C4.35167 6.86757 3.74189 6.28694 2.81305 6.28694ZM3.48072 8.43546C3.30652 8.58055 3.07426 8.66755 2.72585 8.66755H2.55164V6.78053H2.69678C3.04519 6.78053 3.27745 6.83858 3.45169 7.01271C3.65489 7.18679 3.77108 7.44824 3.77108 7.70961C3.8001 7.9709 3.68399 8.26109 3.48072 8.43546Z" fill="#2B303A"/>
<path d="M5.16488 6.2867H4.61328V9.13191H5.16488V6.2867Z" fill="#2B303A"/>
<path d="M6.55811 7.39021C6.20978 7.2741 6.12258 7.18694 6.12258 7.04184C6.12258 6.86764 6.29678 6.7225 6.52904 6.7225C6.70325 6.7225 6.84838 6.7806 6.99356 6.9548L7.28396 6.5774C7.05162 6.37409 6.76142 6.2581 6.44204 6.2581C5.94837 6.2581 5.54191 6.60651 5.54191 7.07087C5.54191 7.47742 5.71627 7.65158 6.23877 7.85481C6.47103 7.94178 6.55815 7.97092 6.61632 8.02898C6.73223 8.08695 6.79041 8.20318 6.79041 8.31917C6.79041 8.55147 6.61632 8.72572 6.35488 8.72572C6.09335 8.72572 5.86129 8.58058 5.74514 8.34828L5.39673 8.69669C5.65814 9.07409 5.97748 9.24825 6.38394 9.24825C6.96453 9.24825 7.3708 8.87086 7.3708 8.31917C7.37088 7.82575 7.19683 7.62251 6.55811 7.39021Z" fill="#2B303A"/>
<path d="M19.1001 7.94175C19.5354 7.85479 19.7677 7.56435 19.7677 7.12898C19.7677 6.60648 19.3903 6.28694 18.7517 6.28694H17.9097V9.13224H18.4613V7.99984H18.5485L19.3321 9.13224H20L19.1001 7.94175ZM18.6354 7.59334H18.4613V6.72247H18.6354C18.9838 6.72247 19.1871 6.86757 19.1871 7.15809C19.1871 7.44828 18.9838 7.59334 18.6354 7.59334Z" fill="#2B303A"/>
</svg>
