<svg viewBox="0 0 22 16" fill="none" xmlns="http://www.w3.org/2000/svg">
<rect x="0.5" y="0.5" width="21" height="15" rx="1.5" stroke="currentColor"/>
<path d="M12.8923 4.61624H9.10669V11.4195H12.8923V4.61624Z" fill="#717171"/>
<path d="M9.34725 8.01866C9.34655 7.36337 9.49496 6.71651 9.78126 6.12706C10.0675 5.53761 10.4842 5.02104 10.9997 4.61645C10.3614 4.11485 9.59495 3.80294 8.78782 3.71636C7.98069 3.62978 7.16548 3.77202 6.43537 4.12684C5.70526 4.48165 5.0897 5.03471 4.65904 5.72281C4.22838 6.41092 4 7.2063 4 8.01806C4 8.82982 4.22838 9.62521 4.65904 10.3133C5.0897 11.0014 5.70526 11.5545 6.43537 11.9093C7.16548 12.2641 7.98069 12.4063 8.78782 12.3198C9.59495 12.2332 10.3614 11.9213 10.9997 11.4197C10.4844 11.0152 10.0678 10.4988 9.78152 9.9096C9.49523 9.32038 9.34673 8.67375 9.34725 8.01866Z" fill="currentColor"/>
<path d="M18.0001 8.01841C18.0001 8.83023 17.7716 9.62567 17.3409 10.3138C16.9102 11.0019 16.2945 11.555 15.5643 11.9097C14.8341 12.2645 14.0188 12.4066 13.2116 12.3199C12.4045 12.2332 11.638 11.9212 10.9998 11.4194C11.5149 11.0146 11.9313 10.4981 12.2177 9.90882C12.504 9.31956 12.6528 8.67297 12.6528 8.01781C12.6528 7.36266 12.504 6.71606 12.2177 6.12681C11.9313 5.53755 11.5149 5.02102 10.9998 4.6162C11.638 4.11445 12.4045 3.80239 13.2116 3.71568C14.0188 3.62898 14.8341 3.77113 15.5643 4.12589C16.2945 4.48065 16.9102 5.0337 17.3409 5.72183C17.7716 6.40996 18.0001 7.20539 18.0001 8.01721V8.01841Z" fill="#A4A4A4"/>
</svg>
