<svg viewBox="0 0 22 16" fill="none" xmlns="http://www.w3.org/2000/svg">
<rect x="0.5" y="0.5" width="21" height="15" rx="1.5" stroke="#2B303A"/>
<path d="M14.3115 6.06001C14.3115 6.10384 14.3115 6.14768 14.2676 6.19151C13.917 7.94474 12.7774 8.51454 11.2871 8.51454H10.542C10.3667 8.51454 10.1914 8.64603 10.1914 8.82135L9.79689 11.2759L9.70923 11.9772C9.70923 12.1087 9.79689 12.1963 9.88455 12.1963H11.2433C11.4186 12.1963 11.5501 12.0648 11.5501 11.9333V11.8457L11.8131 10.2678V10.1801C11.8569 10.0048 11.9884 9.91712 12.1199 9.91712H12.3391C13.654 9.91712 14.6621 9.39115 14.9251 7.85708C15.0566 7.19961 14.9689 6.67364 14.6621 6.323C14.5744 6.23534 14.443 6.14767 14.3115 6.06001Z" fill="#A4A4A4"/>
<path d="M13.9608 5.92853C13.917 5.92853 13.8732 5.8847 13.7855 5.8847C13.7417 5.8847 13.654 5.84087 13.6102 5.84087C13.391 5.79704 13.1719 5.79704 12.9527 5.79704H10.9365C10.8927 5.79704 10.8489 5.79704 10.805 5.84087C10.7174 5.8847 10.6297 5.97237 10.6297 6.06003L10.1914 8.77754V8.8652C10.2352 8.68987 10.3667 8.55838 10.542 8.55838H11.2872C12.7774 8.55838 13.917 7.94475 14.2677 6.23535C14.2677 6.19152 14.2677 6.14769 14.3115 6.10386C14.2238 6.06003 14.1362 6.0162 14.0485 5.97237C14.0047 5.92854 13.9608 5.92853 13.9608 5.92853Z" fill="#2B303A"/>
<path d="M10.6298 6.06005C10.6298 5.97238 10.7175 5.88472 10.8052 5.84089C10.849 5.84089 10.8928 5.79706 10.9367 5.79706H12.9529C13.172 5.79706 13.435 5.79706 13.6103 5.84089C13.6542 5.84089 13.7418 5.84089 13.7857 5.88472C13.8295 5.88472 13.8733 5.92855 13.961 5.92855C14.0048 5.92855 14.0048 5.92855 14.0486 5.97239C14.1363 6.01622 14.224 6.06005 14.3116 6.10388C14.3993 5.44642 14.3116 5.00811 13.961 4.61363C13.5665 4.17532 12.8652 4 11.9886 4H9.40258C9.22726 4 9.05194 4.13149 9.05194 4.30681L8 11.0568C8 11.1882 8.08766 11.3197 8.21915 11.3197H9.79706L10.1915 8.77756L10.6298 6.06005Z" fill="#2B303A"/>
</svg>
