<svg width="22" height="16" viewBox="0 0 22 16" fill="none" xmlns="http://www.w3.org/2000/svg">
<rect x="0.5" y="0.5" width="21" height="15" rx="1.5" stroke="#2B303A"/>
<path fill-rule="evenodd" clip-rule="evenodd" d="M11.6622 5.90002L10.5467 6.13943V5.23498L11.6622 5V5.90002ZM13.9822 6.401C13.5466 6.401 13.2666 6.60495 13.1111 6.74682L13.0533 6.47194H12.0755V11.6415L13.1866 11.4065L13.1911 10.1518C13.3511 10.2671 13.5866 10.4311 13.9777 10.4311C14.7733 10.4311 15.4978 9.79271 15.4978 8.38726C15.4933 7.10151 14.76 6.401 13.9822 6.401ZM13.7156 9.45575C13.4534 9.45575 13.2978 9.36264 13.1912 9.24737L13.1867 7.60251C13.3023 7.47394 13.4623 7.38527 13.7156 7.38527C14.12 7.38527 14.4 7.83749 14.4 8.41829C14.4 9.01239 14.1245 9.45575 13.7156 9.45575ZM18.9999 8.43159C18.9999 7.29659 18.4488 6.401 17.3955 6.401C16.3377 6.401 15.6977 7.29659 15.6977 8.42272C15.6977 9.75723 16.4533 10.4311 17.5377 10.4311C18.0666 10.4311 18.4666 10.3114 18.7688 10.143V9.25624C18.4666 9.40698 18.1199 9.50008 17.6799 9.50008C17.2488 9.50008 16.8666 9.34934 16.8177 8.82618H18.991C18.991 8.80174 18.9926 8.74623 18.9945 8.68227C18.997 8.59537 18.9999 8.49288 18.9999 8.43159ZM16.8044 8.01039C16.8044 7.50939 17.1111 7.30101 17.3911 7.30101C17.6622 7.30101 17.9511 7.50939 17.9511 8.01039H16.8044ZM10.5467 6.47641H11.6622V10.3558H10.5467V6.47641ZM9.2801 6.4764L9.35121 6.80448C9.61343 6.32565 10.1334 6.42319 10.2757 6.4764V7.49612C10.1379 7.44735 9.69343 7.38528 9.43121 7.72667V10.3558H8.32009V6.4764H9.2801ZM7.12883 5.51429L6.04437 5.74483L6.03993 9.29614C6.03993 9.95231 6.53327 10.4356 7.19105 10.4356C7.55549 10.4356 7.82216 10.3691 7.96883 10.2893V9.38924C7.82661 9.44688 7.12438 9.65082 7.12438 8.99465V7.42073H7.96883V6.47637H7.12438L7.12883 5.51429ZM4.50223 7.36309C4.26667 7.36309 4.12445 7.4296 4.12445 7.60251C4.12445 7.7913 4.36922 7.87435 4.67288 7.97737C5.16792 8.14534 5.81948 8.36641 5.82224 9.1853C5.82224 9.97891 5.18668 10.4356 4.26223 10.4356C3.88 10.4356 3.46222 10.3602 3.04889 10.1829V9.12766C3.42222 9.33161 3.89334 9.48235 4.26223 9.48235C4.51112 9.48235 4.6889 9.41585 4.6889 9.2119C4.6889 9.00278 4.42356 8.9072 4.10323 8.7918C3.61539 8.61606 3 8.39436 3 7.65571C3 6.87096 3.6 6.401 4.50223 6.401C4.87112 6.401 5.23557 6.45864 5.60446 6.60495V7.64684C5.26668 7.46507 4.84001 7.36309 4.50223 7.36309Z" fill="#2B303A"/>
</svg>
