<svg viewBox="0 0 22 16" fill="none" xmlns="http://www.w3.org/2000/svg">
<rect x="0.5" y="0.5" width="21" height="15" rx="1.5" stroke="#2B303A"/>
<path d="M17.9241 5.68419H16.9183C16.6142 5.68419 16.3803 5.77776 16.2399 6.08186L14.3218 10.4561H15.6785C15.6785 10.4561 15.9124 9.87133 15.9592 9.73098C16.0996 9.73098 17.4329 9.73098 17.62 9.73098C17.6668 9.89472 17.7838 10.4327 17.7838 10.4327H19.0001L17.9241 5.68419ZM16.3335 8.74852C16.4504 8.46782 16.8481 7.41519 16.8481 7.41519C16.8481 7.43858 16.9651 7.13449 17.0118 6.97074L17.1054 7.3918C17.1054 7.3918 17.3627 8.538 17.4095 8.77191H16.3335V8.74852Z" fill="#2B303A"/>
<path d="M14.4151 8.88889C14.4151 9.87134 13.5262 10.5263 12.1461 10.5263C11.5613 10.5263 10.9999 10.4094 10.6958 10.269L10.8829 9.19298L11.0467 9.26316C11.4677 9.45029 11.7484 9.52047 12.2631 9.52047C12.6373 9.52047 13.035 9.38012 13.035 9.05263C13.035 8.8421 12.8712 8.70175 12.3566 8.46784C11.8654 8.23392 11.2104 7.85965 11.2104 7.18129C11.2104 6.24561 12.1227 5.61403 13.4093 5.61403C13.9005 5.61403 14.3215 5.7076 14.5788 5.82456L14.3917 6.8538L14.2981 6.76023C14.0642 6.66667 13.7601 6.5731 13.3157 6.5731C12.8245 6.59649 12.5905 6.80702 12.5905 6.99415C12.5905 7.20468 12.8712 7.36842 13.3157 7.57895C14.0642 7.92982 14.4151 8.32748 14.4151 8.88889Z" fill="#2B303A"/>
<path d="M3 5.73101L3.02339 5.63744H5.03509C5.31579 5.63744 5.52632 5.73101 5.59649 6.0351L6.04094 8.14037C5.59649 7.01756 4.56725 6.10528 3 5.73101Z" fill="#2B303A"/>
<path d="M8.87142 5.68421L6.83633 10.4327H5.45621L4.28662 6.45614C5.12873 6.99415 5.83048 7.83626 6.08779 8.42105L6.22814 8.91228L7.4913 5.66082H8.87142V5.68421Z" fill="#2B303A"/>
<path d="M9.40929 5.66082H10.6958L9.87713 10.4327H8.59058L9.40929 5.66082Z" fill="#2B303A"/>
</svg>
