<svg width="16" height="16" viewBox="0 0 16 16" fill="none" xmlns="http://www.w3.org/2000/svg">
<circle cx="8" cy="8" r="7.5" stroke="#2B303A"/>
<path d="M10.956 9.77998C10.956 7.97998 9.64804 7.58398 8.41204 7.25998V4.35598C9.11247 4.4601 9.55906 4.82553 9.71647 5.38748C9.79066 5.65233 10.003 5.87998 10.278 5.87998C10.5531 5.87998 10.7822 5.65457 10.7321 5.38415C10.506 4.16515 9.44484 3.58511 8.41204 3.46798V3.20998C8.41204 2.98797 8.23206 2.80798 8.01004 2.80798C7.78802 2.80798 7.60804 2.98797 7.60804 3.20998V3.46798C6.16804 3.62398 5.32804 4.58398 5.32804 5.68798C5.32804 7.34398 6.45604 7.73998 7.60804 8.02798V11.22C6.80705 11.0849 6.26217 10.6083 6.07951 9.9837C6.00417 9.72608 5.79445 9.50398 5.52604 9.50398C5.25763 9.50398 5.03486 9.72363 5.08405 9.98749C5.3029 11.1613 6.31507 11.9836 7.60804 12.132V12.618C7.60804 12.84 7.78802 13.02 8.01004 13.02C8.23206 13.02 8.41204 12.84 8.41204 12.618V12.144C10.02 12.012 10.956 11.004 10.956 9.77998ZM6.30004 5.68798C6.30004 5.07598 6.69604 4.48798 7.60804 4.35598V7.04398C6.86404 6.81598 6.30004 6.49198 6.30004 5.68798ZM8.41204 11.244V8.23198C9.27604 8.47198 9.97204 8.81998 9.97204 9.83998C9.97204 10.62 9.33604 11.136 8.41204 11.244Z" fill="#2B303A"/>
</svg>
