<svg width="16" height="16" viewBox="0 0 16 16" fill="none" xmlns="http://www.w3.org/2000/svg">
<circle cx="8" cy="8" r="7.5" stroke="#2B303A"/>
<path d="M8.12399 12.156C9.48196 12.156 10.5883 11.2655 10.7996 9.9104C10.8404 9.64847 10.6211 9.432 10.356 9.432C10.0909 9.432 9.8828 9.65005 9.82092 9.90782C9.63282 10.6914 8.97977 11.232 8.12399 11.232C7.10399 11.232 6.37199 10.5 6.37199 9.432V9.084H8.40599C8.60813 9.084 8.77199 8.92014 8.77199 8.718C8.77199 8.51586 8.60813 8.352 8.40599 8.352H6.37199V7.296H8.40599C8.60813 7.296 8.77199 7.13214 8.77199 6.93C8.77199 6.72786 8.60813 6.564 8.40599 6.564H6.37199V6.168C6.37199 5.1 7.11599 4.368 8.12399 4.368C9.04837 4.368 9.65305 4.91483 9.82536 5.69151C9.88277 5.95032 10.0909 6.168 10.356 6.168C10.6211 6.168 10.8403 5.95172 10.8027 5.68929C10.6065 4.31755 9.55936 3.444 8.12399 3.444C6.75599 3.444 5.41199 4.44 5.41199 6.108V6.564H5.10599C4.90385 6.564 4.73999 6.72786 4.73999 6.93C4.73999 7.13214 4.90385 7.296 5.10599 7.296H5.41199V8.352H5.10599C4.90385 8.352 4.73999 8.51586 4.73999 8.718C4.73999 8.92014 4.90385 9.084 5.10599 9.084H5.41199V9.492C5.41199 11.16 6.75599 12.156 8.12399 12.156Z" fill="#2B303A"/>
</svg>
