<svg viewBox="0 0 16 16" fill="none" xmlns="http://www.w3.org/2000/svg">
<circle cx="8" cy="8" r="7.5" stroke="currentColor"/>
<path d="M7.01999 12.06C6.81199 12.06 6.62399 12.052 6.45599 12.036C6.20804 12.0242 6.02399 11.8146 6.02399 11.5664V8.08801L5.22757 8.3634C4.98888 8.44594 4.73999 8.26866 4.73999 8.0161C4.73999 7.8583 4.84073 7.71811 4.99029 7.66779L6.02399 7.32001V6.37201L5.2275 6.63998C4.98796 6.72058 4.73999 6.54238 4.73999 6.28964C4.73999 6.13092 4.84132 5.98992 4.99176 5.9393L6.02399 5.59201V3.94801C6.02399 3.66303 6.25501 3.43201 6.53999 3.43201C6.82497 3.43201 7.05599 3.66303 7.05599 3.94801V5.23201L9.03913 4.5485C9.27856 4.46598 9.52799 4.64384 9.52799 4.89709C9.52799 5.05442 9.42816 5.19441 9.27942 5.24568L7.05599 6.01201V6.96001L9.04591 6.27416C9.28201 6.19279 9.52799 6.36818 9.52799 6.61792C9.52799 6.77249 9.43027 6.91016 9.28436 6.96116L7.05599 7.74001V11.148C7.78399 11.148 8.35999 11 8.78399 10.704C9.20799 10.4 9.51199 9.99601 9.69599 9.49201C9.82792 9.13064 9.91255 8.73843 9.94989 8.31538C9.97494 8.0315 10.203 7.80001 10.488 7.80001C10.773 7.80001 11.0064 8.03144 10.9826 8.31542C10.9515 8.685 10.8867 9.0452 10.788 9.39601C10.652 9.90801 10.424 10.364 10.104 10.764C9.79199 11.164 9.38399 11.48 8.87999 11.712C8.37599 11.944 7.75599 12.06 7.01999 12.06Z" fill="currentColor"/>
</svg>
