<svg width="16" height="16" viewBox="0 0 16 16" fill="none" xmlns="http://www.w3.org/2000/svg">
<circle cx="8" cy="8" r="7.5" stroke="#2B303A"/>
<path d="M7.716 12.068L5.448 8.108V7.58H5.712C6.136 7.58 6.492 7.54 6.78 7.46C7.076 7.38 7.308 7.248 7.476 7.064C7.644 6.88 7.744 6.628 7.776 6.308H5.448V5.54H7.764C7.708 5.244 7.596 5.004 7.428 4.82C7.26 4.628 7.032 4.488 6.744 4.4C6.464 4.312 6.12 4.268 5.712 4.268H5.448V3.5H10.416V4.268H8.148C8.332 4.42 8.484 4.6 8.604 4.808C8.724 5.016 8.8 5.26 8.832 5.54H10.416V6.308H8.856C8.8 6.892 8.576 7.348 8.184 7.676C7.8 7.996 7.288 8.2 6.648 8.288L8.94 12.068H7.716Z" fill="#2B303A"/>
</svg>
