<svg viewBox="0 0 16 16" fill="none" xmlns="http://www.w3.org/2000/svg">
<circle cx="8" cy="8" r="7.5" stroke="currentColor"/>
<path d="M4.52002 12V3.43201H7.29202C7.87602 3.43201 8.35602 3.54801 8.73202 3.78001C9.11602 4.00401 9.40002 4.32001 9.58402 4.72801C9.76802 5.12801 9.86002 5.59601 9.86002 6.13201V9.81601H8.88802V6.14401C8.88802 5.72801 8.82002 5.38001 8.68402 5.10001C8.54802 4.82001 8.35202 4.61201 8.09602 4.47601C7.84802 4.33201 7.54002 4.26001 7.17202 4.26001H5.49202V12H4.52002ZM6.70402 5.61601H7.67602V11.172H9.30802C9.71602 11.172 10.056 11.1 10.328 10.956C10.6 10.812 10.804 10.6 10.94 10.32C11.076 10.032 11.144 9.68401 11.144 9.27601V3.43201H12.116V9.27601C12.116 9.79601 12.024 10.264 11.84 10.68C11.656 11.088 11.364 11.412 10.964 11.652C10.564 11.884 10.04 12 9.39202 12H6.70402V5.61601Z" fill="currentColor"/>
</svg>
