<svg viewBox="0 0 16 16" fill="none" xmlns="http://www.w3.org/2000/svg">
<circle cx="8" cy="8" r="7.5" stroke="currentColor"/>
<path d="M5.596 12.568L4.888 8.596H4V7.828H4.756L4.096 4H5.056L5.668 7.828H6.664L7.36 4H8.464L9.184 7.828H10.168L10.756 4H11.704L11.068 7.828H11.8V8.596H10.936L10.288 12.568H9.208L8.488 8.596H7.372L6.664 12.568H5.596ZM6.136 11.272L6.52 8.596H5.8L6.136 11.272ZM9.724 11.32L10.06 8.596H9.328L9.724 11.32ZM7.504 7.828H8.344L7.912 5.128L7.504 7.828Z" fill="currentColor"/>
</svg>
