<svg width="16" height="16" viewBox="0 0 16 16" fill="none" xmlns="http://www.w3.org/2000/svg">
<circle cx="8" cy="8" r="7.5" stroke="#2B303A"/>
<path d="M11.1811 4.71536C11.3679 4.39932 11.1401 4 10.773 4C10.604 4 10.4478 4.08995 10.363 4.23609L8.076 8.176H8.004L5.68756 4.22442C5.60607 4.08541 5.457 4 5.29586 4C4.94426 4 4.72608 4.38243 4.905 4.6851L7.068 8.344H5.982C5.75335 8.344 5.568 8.52935 5.568 8.758C5.568 8.98665 5.75335 9.172 5.982 9.172H7.56V10.132H5.982C5.75335 10.132 5.568 10.3174 5.568 10.546C5.568 10.7746 5.75335 10.96 5.982 10.96H7.56V11.908C7.56 12.1797 7.78028 12.4 8.052 12.4C8.32372 12.4 8.544 12.1797 8.544 11.908V10.96H10.17C10.3986 10.96 10.584 10.7746 10.584 10.546C10.584 10.3174 10.3986 10.132 10.17 10.132H8.544V9.172H10.17C10.3986 9.172 10.584 8.98665 10.584 8.758C10.584 8.52935 10.3986 8.344 10.17 8.344H9.036L11.1811 4.71536Z" fill="#2B303A"/>
</svg>
