<svg viewBox="0 0 16 16" fill="none" xmlns="http://www.w3.org/2000/svg">
<path d="M12 14.5H4C3.17157 14.5 2.5 13.8284 2.5 13V3C2.5 2.17157 3.17157 1.5 4 1.5H9.99324C10.3814 1.5 10.7545 1.65049 11.034 1.91983L13.0408 3.85343C13.3342 4.13616 13.5 4.52611 13.5 4.9336V13C13.5 13.8284 12.8284 14.5 12 14.5Z" stroke="currentColor"/>
<path d="M10 2V4C10 4.55228 10.4477 5 11 5H13" stroke="currentColor"/>
<path fill-rule="evenodd" clip-rule="evenodd" d="M10.621 6L6.02494 6.76601V8.29804L6.02498 8.29803L6.02494 11.0664C5.85256 11.0517 5.66387 11.0676 5.47252 11.1189C4.85956 11.2831 4.45142 11.7476 4.56091 12.1562C4.67041 12.5648 5.25608 12.763 5.86904 12.5987C6.469 12.438 6.87273 11.9896 6.78692 11.5875H6.79094L6.791 8.17036L9.85069 7.66041V10.3004C9.67832 10.2857 9.48963 10.3016 9.29828 10.3529C8.68532 10.5171 8.27718 10.9815 8.38668 11.3902C8.49617 11.7988 9.08184 11.9969 9.6948 11.8327C10.2948 11.6719 10.6985 11.2236 10.6127 10.8215H10.6167V7.53274L10.621 7.53203V6Z" fill="currentColor"/>
</svg>
