<svg viewBox="0 0 16 16" fill="none" xmlns="http://www.w3.org/2000/svg">
<path d="M13 6V3C13 2.44772 12.5523 2 12 2H5C4.44772 2 4 2.44772 4 3V5" stroke="#2B303A"/>
<mask id="path-2-inside-1_5_434" fill="white">
<path d="M1 6C1 4.89543 1.89543 4 3 4H5.58579C5.851 4 6.10536 4.10536 6.29289 4.29289L7.5 5.5H13C14.1046 5.5 15 6.39543 15 7.5V13C15 14.1046 14.1046 15 13 15H3C1.89543 15 1 14.1046 1 13V6Z"/>
</mask>
<path d="M7.5 5.5L6.79289 6.20711C6.98043 6.39464 7.23478 6.5 7.5 6.5V5.5ZM6.29289 4.29289L7 3.58579L6.29289 4.29289ZM14 7.5V13H16V7.5H14ZM13 14H3V16H13V14ZM2 13V6H0V13H2ZM3 5H5.58579V3H3V5ZM5.58579 5L6.79289 6.20711L8.20711 4.79289L7 3.58579L5.58579 5ZM7.5 6.5H13V4.5H7.5V6.5ZM5.58579 5L7 3.58579C6.62493 3.21071 6.11622 3 5.58579 3V5ZM3 14C2.44772 14 2 13.5523 2 13H0C0 14.6569 1.34315 16 3 16V14ZM14 13C14 13.5523 13.5523 14 13 14V16C14.6569 16 16 14.6569 16 13H14ZM16 7.5C16 5.84315 14.6569 4.5 13 4.5V6.5C13.5523 6.5 14 6.94772 14 7.5H16ZM2 6C2 5.44772 2.44772 5 3 5V3C1.34315 3 0 4.34315 0 6H2Z" fill="#2B303A" mask="url(#path-2-inside-1_5_434)"/>
<path d="M4 12H6" stroke="#2B303A" stroke-linecap="round" stroke-linejoin="round"/>
</svg>
