<svg width="16" height="16" viewBox="0 0 16 16" fill="none" xmlns="http://www.w3.org/2000/svg">
<path d="M12 14.5H4C3.17157 14.5 2.5 13.8284 2.5 13V3C2.5 2.17157 3.17157 1.5 4 1.5H9.99324C10.3814 1.5 10.7545 1.65049 11.034 1.91983L13.0408 3.85343C13.3342 4.13616 13.5 4.52611 13.5 4.9336V13C13.5 13.8284 12.8284 14.5 12 14.5Z" stroke="#2B303A"/>
<path d="M10 2V4C10 4.55228 10.4477 5 11 5H13" stroke="#2B303A"/>
<path d="M7 2V7" stroke="#2B303A" stroke-linecap="round" stroke-linejoin="round" stroke-dasharray="0.5 2"/>
<path d="M4.20001 13H6.93501V12.185H5.44001V12.14L6.92501 10.31V9.5H4.26001V10.31H5.68001V10.355L4.20001 12.185V13Z" fill="#2B303A"/>
<path d="M7.40978 13H8.36978V9.5H7.40978V13Z" fill="#2B303A"/>
<path d="M8.91857 13H9.87857V11.955H10.3186C11.0186 11.955 11.6036 11.43 11.6036 10.72C11.6036 10.005 11.0386 9.5 10.3186 9.5H8.91857V13ZM9.87857 11.145V10.31H10.2186C10.4486 10.31 10.6286 10.46 10.6286 10.72C10.6286 10.985 10.4486 11.145 10.2186 11.145H9.87857Z" fill="#2B303A"/>
</svg>
